<svg xmlns="http://www.w3.org/2000/svg" xmlns:xlink="http://www.w3.org/1999/xlink" viewBox="0 0 94.87 84.36"><defs><style>.e297ae57-9d45-4049-b2e5-72198039d749{fill:url(#a99b551a-e392-40c8-9b28-7eab11b15f82);}.e7c68f58-f769-4e17-99a3-770ae8af02b7{fill:url(#a31de651-a2c7-4f18-825d-49355bbd5f7d);}.bcfa8da7-96eb-4656-866c-8ebdd4ef4426{fill:url(#e13b4cb1-4a56-4ce5-a3a2-18a4c10643be);}.f1687906-0541-43cc-a700-d634e859613a{fill:#090e16;}</style><linearGradient id="a99b551a-e392-40c8-9b28-7eab11b15f82" x1="47.74" y1="39.67" x2="46.13" y2="-54.4" gradientUnits="userSpaceOnUse"><stop offset="0" stop-color="aqua"/><stop offset="1" stop-color="#00123f"/></linearGradient><linearGradient id="a31de651-a2c7-4f18-825d-49355bbd5f7d" x1="21.23" y1="43.63" x2="43.27" y2="41.08" xlink:href="#a99b551a-e392-40c8-9b28-7eab11b15f82"/><linearGradient id="e13b4cb1-4a56-4ce5-a3a2-18a4c10643be" x1="-0.6" y1="32.42" x2="96.28" y2="73.02" xlink:href="#a99b551a-e392-40c8-9b28-7eab11b15f82"/></defs><g id="ad6278e9-aca3-4273-bf8a-c03955fe88fa" data-name="Слой 2"><g id="e88b5897-c670-4ecb-899b-7dc644767656" data-name="Слой 1"><path class="e297ae57-9d45-4049-b2e5-72198039d749" d="M94.87,44.22C94.85,28.64,48,28.06,44.81,19.5h0C44.81,8.85,33.77,5,0,0,26.58.25,53.23,4.35,75.57,17.47c8,5,15.89,11.73,18.54,21.11A21.48,21.48,0,0,1,94.87,44.22Z"/><path id="bc5a3be4-19a1-4a45-a39f-add70808db94" data-name="fishTree-3__tail" class="e7c68f58-f769-4e17-99a3-770ae8af02b7" d="M26.53,24.72C31,29.55,31.76,39,31.76,43S31,56.48,26.53,61.3C40.4,55.47,49.85,43,49.85,43S40.4,30.55,26.53,24.72Z"/><path class="bcfa8da7-96eb-4656-866c-8ebdd4ef4426" d="M58.55,25.06c-7-1.87-13.7-3.17-13.74-5.54v.05C44.69,23.91,43.3,27.8,42,32.15A48.78,48.78,0,0,0,39.94,43c0,.39,0,.79,0,1.2h0c0,.4,0,.81,0,1.2,1,15.32,10.52,21.87-.07,38.94C56.51,80.77,70.54,75,80.26,67.82,89.51,61,94.87,52.9,94.87,44.22,94.87,33.71,73.38,29,58.55,25.06Z"/><circle class="f1687906-0541-43cc-a700-d634e859613a" cx="81.77" cy="39.99" r="3.03"/></g></g></svg>