<svg xmlns="http://www.w3.org/2000/svg" xmlns:xlink="http://www.w3.org/1999/xlink" viewBox="0 0 384.3 158.22"><defs><style>.bd6c9493-19ae-4c4a-b87f-c616dd31ae51{fill:url(#f2605d09-8124-46d4-a6d4-4d73356c5f4f);}.faaebd21-b0c2-4772-be38-e88edccb043c{fill:url(#fb6dabb2-50ce-4637-9e96-a10a7e3e2564);}.b780cd47-2dc7-477a-8515-46495f638dd7{fill:url(#b3b239fd-8e5f-46a4-b227-6d116c83ad22);}.f5ca3315-5538-4a37-9ae8-f73cc787066b{fill:none;stroke:#fff;stroke-miterlimit:10;}.f7014c25-7b35-4f0b-9bc9-74576ff54afd{fill:url(#afb2ce62-9ec3-4e5c-9288-35aa06c60da5);}.bae08768-b471-45ae-a900-06d35bade520{opacity:0.28;fill:url(#a7a1a5d4-8503-4173-a384-5d10a8135199);}.a0acdb22-95a1-480a-a21e-9470dfa7ef23{fill:#090e16;}</style><linearGradient id="f2605d09-8124-46d4-a6d4-4d73356c5f4f" y1="83.37" x2="198.46" y2="83.37" gradientTransform="translate(-29.89 94.59) rotate(-45)" gradientUnits="userSpaceOnUse"><stop offset="0" stop-color="#8cf6ca"/><stop offset="1" stop-color="#7486ff"/></linearGradient><linearGradient id="fb6dabb2-50ce-4637-9e96-a10a7e3e2564" x1="387.13" y1="47.07" x2="195.62" y2="47.07" gradientUnits="userSpaceOnUse"><stop offset="0" stop-color="#86c2e6"/><stop offset="1" stop-color="#043163"/></linearGradient><linearGradient id="b3b239fd-8e5f-46a4-b227-6d116c83ad22" x1="253.16" y1="138.08" x2="253.16" y2="32.29" xlink:href="#fb6dabb2-50ce-4637-9e96-a10a7e3e2564"/><linearGradient id="afb2ce62-9ec3-4e5c-9288-35aa06c60da5" x1="198.46" y1="57.83" x2="307.87" y2="57.83" gradientUnits="userSpaceOnUse"><stop offset="0" stop-color="#275e82"/><stop offset="1" stop-color="#042225"/></linearGradient><linearGradient id="a7a1a5d4-8503-4173-a384-5d10a8135199" x1="72.52" y1="83.37" x2="198.46" y2="83.37" xlink:href="#afb2ce62-9ec3-4e5c-9288-35aa06c60da5"/></defs><g id="aa65563f-e5aa-4115-8e55-da894167158c" data-name="Слой 2"><g id="ac074534-d83c-4f47-a6b2-ec5958d9f612" data-name="Слой 1"><path class="bd6c9493-19ae-4c4a-b87f-c616dd31ae51" d="M96.54,13.21H169.4a0,0,0,0,1,0,0V86.06a67.48,67.48,0,0,1-67.48,67.48H29.06a0,0,0,0,1,0,0V80.69A67.48,67.48,0,0,1,96.54,13.21Z" transform="translate(88.02 -45.75) rotate(45)"/><path id="aa66adaf-7b4a-415e-89ab-015a3960f58a" data-name="fish__tail" class="faaebd21-b0c2-4772-be38-e88edccb043c" d="M384.3,83.37a95.76,95.76,0,0,0-185.84,0Z"/><path id="abce9c2c-f22c-45f7-94d9-6dddbee0a31e" data-name="fish__tail" class="b780cd47-2dc7-477a-8515-46495f638dd7" d="M307.87,83.38a54.73,54.73,0,0,1-54.67,54.7,54.69,54.69,0,0,0-54.7-54.7h0A73.44,73.44,0,0,1,223.84,43.8C256,18,304.49,38,307.7,79.06c.05.57.08,1.14.11,1.72C307.85,81.65,307.87,82.52,307.87,83.38Z"/><path class="f5ca3315-5538-4a37-9ae8-f73cc787066b" d="M42.56,20.25A76.06,76.06,0,0,1,76.13,83.37a75.94,75.94,0,0,1-6,29.64"/><path id="b7ebed2c-4245-49d4-aeef-9381abefc235" data-name="fish__tail" class="f7014c25-7b35-4f0b-9bc9-74576ff54afd" d="M198.46,83.37H307.87c0-.86,0-1.72-.06-2.59,0-.58-.06-1.15-.11-1.72C304.49,38,256,18,223.84,43.8A73.45,73.45,0,0,0,198.46,83.37Z"/><path class="f5ca3315-5538-4a37-9ae8-f73cc787066b" d="M82.49,47.07a89.89,89.89,0,0,1,7.61,36.3,90,90,0,0,1-39.31,74.44"/><path class="bae08768-b471-45ae-a900-06d35bade520" d="M147,31.86A67.5,67.5,0,0,0,72.52,17.61c34.13,0,61.74,29.43,61.74,65.76s-27.61,65.75-61.74,65.77A67.5,67.5,0,0,0,147,134.89l51.51-51.52Z"/><path class="f5ca3315-5538-4a37-9ae8-f73cc787066b" d="M198.46,83.37A82.83,82.83,0,0,1,281.33.5"/><path class="f5ca3315-5538-4a37-9ae8-f73cc787066b" d="M198.46,84c4.51-9.82,16.11-18.58,32.29-25.38,39.77-16.74,101.67-14.28,124.17,1.26"/><circle class="a0acdb22-95a1-480a-a21e-9470dfa7ef23" cx="33.3" cy="70.91" r="5.5"/><path class="f5ca3315-5538-4a37-9ae8-f73cc787066b" d="M198.46,83.91a46,46,0,0,1,26-13.65c25.44-4.06,45.63,21.79,34.67,45.1-.15.32-.31.64-.47,1-.25.49-.51,1-.77,1.43a34.22,34.22,0,0,1-46.63,12.83"/></g></g></svg>