<svg xmlns="http://www.w3.org/2000/svg" xmlns:xlink="http://www.w3.org/1999/xlink" viewBox="0 0 494.13 284.89"><defs><style>.cls-1{fill:url(#Безымянный_градиент_643);}.cls-2{fill:url(#Безымянный_градиент_643-2);}.cls-3{fill:url(#Безымянный_градиент_661);}.cls-4,.cls-7{fill:none;stroke-miterlimit:10;}.cls-4{stroke:aqua;}.cls-5{opacity:0.53;fill:url(#Безымянный_градиент_381);}.cls-6{fill:url(#Безымянный_градиент_381-2);}.cls-7{stroke:#090e16;}.cls-8{fill:#090e16;}</style><linearGradient id="Безымянный_градиент_643" x1="-910.85" y1="123.01" x2="-737.27" y2="123.01" gradientTransform="translate(1290.4 -20.51) scale(1.42 1.16)" gradientUnits="userSpaceOnUse"><stop offset="0" stop-color="#4c9fe6"/><stop offset="0.88" stop-color="#0d3f3d"/><stop offset="1" stop-color="#043125"/></linearGradient><linearGradient id="Безымянный_градиент_643-2" x1="102.89" y1="-23.46" x2="246.77" y2="171.81" gradientTransform="matrix(1, 0, 0, 1, 0, 0)" xlink:href="#Безымянный_градиент_643"/><linearGradient id="Безымянный_градиент_661" x1="122.99" y1="50.4" x2="224.29" y2="187.89" gradientUnits="userSpaceOnUse"><stop offset="0" stop-color="#275e82"/><stop offset="1" stop-color="#042225"/></linearGradient><linearGradient id="Безымянный_градиент_381" x1="361.32" y1="162.31" x2="320.21" y2="-112.62" gradientUnits="userSpaceOnUse"><stop offset="0" stop-color="#d40082"/><stop offset="0.01" stop-color="#d20884"/><stop offset="0.06" stop-color="#bf4697"/><stop offset="0.11" stop-color="#b07ca6"/><stop offset="0.16" stop-color="#a3a8b3"/><stop offset="0.21" stop-color="#99cabd"/><stop offset="0.26" stop-color="#92e2c4"/><stop offset="0.3" stop-color="#8df1c9"/><stop offset="0.33" stop-color="#8cf6ca"/><stop offset="1" stop-color="#fcee9f"/></linearGradient><linearGradient id="Безымянный_градиент_381-2" x1="265.07" y1="267.79" x2="530" y2="51.96" xlink:href="#Безымянный_градиент_381"/></defs><g id="Слой_2" data-name="Слой 2"><g id="Слой_1-2" data-name="Слой 1"><g id="fish"><g id="fish__animation-1"><path id="fish__7" class="cls-1" d="M123,71.94C55.05,71.94,0,117.06,0,172.72H245.9C245.9,117.06,190.86,71.94,123,71.94Z"/><path id="fish__6" class="cls-2" d="M247,172.72A172.62,172.62,0,0,1,74.23,0h94.6a77.54,77.54,0,0,1,77.54,77.07Z"/><path id="fish__5" class="cls-3" d="M123,71.94A148.78,148.78,0,0,0,91.44,75.3,172.59,172.59,0,0,0,245.9,172.69C245.89,117.05,190.85,71.94,123,71.94Z"/><line class="cls-4" x1="246.95" y1="172.72" x2="208.3" y2="121.62"/><line class="cls-4" x1="162.25" y1="132.97" x2="246.95" y2="172.72"/><line class="cls-4" x1="116.19" y1="144.33" x2="246.95" y2="172.72"/><line class="cls-4" x1="70.13" y1="155.68" x2="246.95" y2="172.72"/><line class="cls-4" x1="24.07" y1="167.04" x2="246.95" y2="172.72"/></g><path id="fish__amimation-2" class="cls-5" d="M415.1,172.43c-19.09-29-52.57-44.91-104.49-44v44.25Z"/><g id="fish__1"><path id="fish__9" class="cls-6" d="M241.78,170.55c-5.75,34.35,1.7,66.71,23.73,88.73,43.54,43.54,127.45,30.23,187.42-29.74a200.74,200.74,0,0,0,41.2-59Z"/><path id="fish__8" class="cls-7" d="M383.66,172.72c-5.75,34.35,1.71,66.71,23.73,88.73"/><path id="fish__3" class="cls-8" d="M444.79,183.85a11.42,11.42,0,0,0,11.42-11.42H433.37A11.42,11.42,0,0,0,444.79,183.85Z"/><line class="cls-7" x1="407.39" y1="261.45" x2="331.72" y2="227.72"/><line class="cls-7" x1="407.39" y1="261.45" x2="336.57" y2="239.88"/><line class="cls-7" x1="407.39" y1="261.45" x2="341.43" y2="252.04"/><line class="cls-7" x1="407.39" y1="261.45" x2="346.29" y2="264.19"/><line class="cls-7" x1="407.39" y1="261.45" x2="351.15" y2="276.35"/></g></g></g></g></svg>