<svg xmlns="http://www.w3.org/2000/svg" xmlns:xlink="http://www.w3.org/1999/xlink" viewBox="0 0 1097.59 885.38"><defs><style>.cls-1{isolation:isolate;}.cls-2{fill:url(#Безымянный_градиент_935);}.cls-3{fill:url(#Безымянный_градиент_935-2);}.cls-4{fill:url(#Безымянный_градиент_935-3);}.cls-5{mix-blend-mode:screen;fill:url(#Безымянный_градиент_930);}.cls-6{fill:url(#Безымянный_градиент_925);}.cls-7{fill:url(#Безымянный_градиент_329);}.cls-8{fill:none;stroke:#000;stroke-miterlimit:10;}</style><linearGradient id="Безымянный_градиент_935" x1="448.97" y1="399.84" x2="837.58" y2="399.84" gradientUnits="userSpaceOnUse"><stop offset="0" stop-color="aqua"/><stop offset="1" stop-color="#00123f"/></linearGradient><linearGradient id="Безымянный_градиент_935-2" x1="651.26" y1="372.83" x2="810.73" y2="372.83" xlink:href="#Безымянный_градиент_935"/><linearGradient id="Безымянный_градиент_935-3" x1="516.46" y1="426.55" x2="854.24" y2="426.55" xlink:href="#Безымянный_градиент_935"/><linearGradient id="Безымянный_градиент_930" x1="869.07" y1="92.84" x2="866.27" y2="249.54" gradientUnits="userSpaceOnUse"><stop offset="0" stop-color="#fff"/><stop offset="0.27" stop-color="#2df"/><stop offset="1" stop-color="#00123f"/></linearGradient><linearGradient id="Безымянный_градиент_925" x1="845.65" y1="242.61" x2="845.65" y2="181.81" gradientUnits="userSpaceOnUse"><stop offset="0" stop-color="#1c64ae"/><stop offset="1" stop-color="#182010"/></linearGradient><linearGradient id="Безымянный_градиент_329" x1="781.3" y1="229.53" x2="881.81" y2="229.53" gradientUnits="userSpaceOnUse"><stop offset="0" stop-color="#8cf6ca"/><stop offset="0.1" stop-color="#8df1c9"/><stop offset="0.23" stop-color="#92e2c4"/><stop offset="0.37" stop-color="#99cabd"/><stop offset="0.51" stop-color="#a3a8b3"/><stop offset="0.67" stop-color="#b07ca6"/><stop offset="0.82" stop-color="#bf4697"/><stop offset="0.98" stop-color="#d20884"/><stop offset="1" stop-color="#d40082"/></linearGradient></defs><g class="cls-1"><g id="Слой_2" data-name="Слой 2"><g id="motionPath"><path class="cls-2" d="M837.58,222.79a48.65,48.65,0,0,0-11.46,12.08,87,87,0,0,0-8,15.1c-4.46,10.62-7.69,21.87-11,33.1s-6.49,22.57-10.33,33.72a253.36,253.36,0,0,1-13.65,32.68,181.58,181.58,0,0,1-19,29.91,168.64,168.64,0,0,1-24.73,25.38c-18.15,15.21-39.31,26.53-61.47,34.44S632.67,452,609.86,457.3c-11.41,2.64-22.79,5.43-34,8.86a228,228,0,0,0-32.68,12.59,169.75,169.75,0,0,0-29.77,18.4,162.43,162.43,0,0,0-13.26,11.47,170.68,170.68,0,0,0-12,12.75q-5.72,6.66-10.82,13.82c-3.44,4.74-6.62,9.66-9.69,14.66a304.76,304.76,0,0,0-16.38,31.08,306.34,306.34,0,0,1,16.11-31.25c3-5,6.17-10,9.58-14.76s6.94-9.46,10.73-13.95a169.83,169.83,0,0,1,12-12.91,162.41,162.41,0,0,1,13.23-11.64,170.43,170.43,0,0,1,29.79-18.79,229.67,229.67,0,0,1,32.77-13c11.21-3.54,22.6-6.44,34-9.18,22.79-5.48,45.74-10.47,67.64-18.62s42.61-19.39,60.32-34.49a165.92,165.92,0,0,0,24-25.11,177.53,177.53,0,0,0,18.41-29.49A249.63,249.63,0,0,0,793,315.49c3.69-11.06,6.82-22.32,10-33.62s6.33-22.66,10.85-33.71a92.77,92.77,0,0,1,8.3-16,54.05,54.05,0,0,1,12.52-13.41Z"/><path class="cls-3" d="M810.73,220.13a76.53,76.53,0,0,0-15.85,14.32,100.76,100.76,0,0,0-11.9,18c-6.74,12.88-11.74,26.76-17.13,40.49a429.59,429.59,0,0,1-17.79,40.66c-3.35,6.61-7,13.06-10.85,19.4s-8,12.46-12.34,18.47c-1.07,1.51-2.22,3-3.32,4.45s-2.21,3-3.39,4.4L711.23,389c-4.67,5.67-9,11.63-13.2,17.64s-8.12,12.26-11.77,18.63-7.13,12.87-10.25,19.53a252.07,252.07,0,0,0-15.34,41.34c-1.92,7.1-3.52,14.3-4.74,21.57a148.49,148.49,0,0,0-2.16,22,149.14,149.14,0,0,1,1.85-22c1.12-7.3,2.62-14.53,4.45-21.68a252.31,252.31,0,0,1,14.81-41.71c3-6.73,6.44-13.3,10-19.77s7.52-12.73,11.57-18.92,8.43-12.16,13-17.95l6.8-8.7c1.15-1.43,2.21-2.94,3.3-4.41s2.19-2.95,3.23-4.45c4.21-6,8.23-12.16,12-18.47s7.24-12.76,10.47-19.35a430.91,430.91,0,0,0,17.08-40.6c5.19-13.77,10-27.79,16.74-41.17a106.87,106.87,0,0,1,12.17-19A81.77,81.77,0,0,1,807.91,216Z"/><path class="cls-4" d="M854.24,243.28A80.72,80.72,0,0,1,848,258.92a75.84,75.84,0,0,1-9.5,13.91c-7.36,8.51-16.4,15.28-25.87,20.91a296.18,296.18,0,0,1-29.4,14.81c-10,4.49-19.93,8.82-29.71,13.54a260.66,260.66,0,0,0-28.42,15.69,165.5,165.5,0,0,0-25.42,20,147.9,147.9,0,0,0-20.64,24.89A287.39,287.39,0,0,0,663.1,411c-9.65,19.48-17.28,39.91-24.48,60.46-3.62,10.28-7.15,20.59-10.91,30.83s-7.78,20.41-12.46,30.28a174.11,174.11,0,0,1-16.51,28.27,121.29,121.29,0,0,1-22.55,23.66,123.49,123.49,0,0,1-28.07,16.69,157.4,157.4,0,0,1-15.32,5.71c-5.2,1.62-10.48,3-15.79,4.21,5.3-1.25,10.56-2.68,15.75-4.34A158.57,158.57,0,0,0,548,601a123.6,123.6,0,0,0,27.84-16.86,121.11,121.11,0,0,0,22.23-23.72,172.94,172.94,0,0,0,16.17-28.26c9.13-19.76,15.72-40.57,22.81-61.18s14.52-41.19,24.07-60.88A293.44,293.44,0,0,1,677,381.33a150.3,150.3,0,0,1,20.74-25.57,168.67,168.67,0,0,1,25.65-20.66A264.41,264.41,0,0,1,752,318.89c9.8-4.87,19.78-9.32,29.64-13.9a293.5,293.5,0,0,0,28.81-14.91c9.18-5.59,17.73-12.18,24.56-20.26a71.34,71.34,0,0,0,8.76-13.13A77.21,77.21,0,0,0,849.43,242Z"/><path class="cls-5" d="M904.32,102.61C863,78.73,801.07,90.77,789.24,144.94A52.73,52.73,0,0,0,794,180.69c15.77-2.31,21,.37,24.39,10.72s22.8,3.77,30,8,11.25,24.28,21.91,22,15.59.94,21.48,15.75a52.72,52.72,0,0,0,33.35-13.72C966.2,186.11,945.68,126.49,904.32,102.61Z"/><path class="cls-6" d="M870.37,221.41c-10.66,2.23-14.67-17.87-21.91-22s-26.65,2.4-30-8c-1.55-4.7-3.48-7.81-6.6-9.6,12.63,14.93-2.5,36.25-2.5,36.25l26.78,2.71,15.74,21.84s10.89-23.77,30.14-20.29C878.87,220.51,875.21,220.39,870.37,221.41Z"/><path class="cls-7" d="M781.67,202.1a59.41,59.41,0,0,1,7.79-1.44,23.3,23.3,0,0,1,8.16.41,12.86,12.86,0,0,1,7.06,4.94l.64.89c.19.3.36.61.53.92.37.62.66,1.25,1,1.88.58,1.22,1.05,2.73,1.49,3.44,1,1.67,2.81,2.59,5.07,3.08a37.18,37.18,0,0,0,7.3.55c2.56,0,5.17-.09,7.91,0a33,33,0,0,1,4.22.37,13.84,13.84,0,0,1,4.55,1.49,13.59,13.59,0,0,1,3.56,3.2,31.26,31.26,0,0,1,2.44,3.46c1.43,2.33,2.66,4.64,3.94,6.86a35.9,35.9,0,0,0,4.13,6.05c1.55,1.71,3.27,2.84,5.19,2.84.83,0,2.37-.32,3.72-.42a21,21,0,0,1,2.11-.12c.36,0,.71,0,1.07,0l1.08.1a12.83,12.83,0,0,1,7.81,3.65,23.19,23.19,0,0,1,4.45,6.87,59.75,59.75,0,0,1,2.64,7.47c-1.25-2.32-2.48-4.64-3.86-6.81a22.71,22.71,0,0,0-4.86-5.69,10,10,0,0,0-6.4-2.22h-.88l-.89.07a15.85,15.85,0,0,0-1.8.24c-1.25.17-2.25.57-4,.74a9.43,9.43,0,0,1-4.82-1,13.78,13.78,0,0,1-3.7-2.73,37.05,37.05,0,0,1-5-6.66c-1.42-2.27-2.68-4.57-4-6.66a31.2,31.2,0,0,0-2.1-2.94A7,7,0,0,0,832,222a32.85,32.85,0,0,0-3.59-.35c-2.49-.13-5.11-.08-7.79-.17a37.26,37.26,0,0,1-8.28-1,13.79,13.79,0,0,1-4.21-1.84,9.55,9.55,0,0,1-3.24-3.69c-.75-1.64-.9-2.7-1.37-3.87a17.76,17.76,0,0,0-.7-1.67l-.38-.82-.43-.76a10,10,0,0,0-5.13-4.44A22.83,22.83,0,0,0,789.5,202C786.91,201.92,784.3,202,781.67,202.1Z"/><path id="path" class="cls-8" d="M.47,885.2c7-19,598.09-102.6,671.09-103.6,75,0,146-113.65,225.51-147.72,43.47-51.62,73.7-216.3,100.19-244.93,59.09-63.85,92.85-365.8,99.85-388.8"/></g></g></g></svg>