<svg xmlns="http://www.w3.org/2000/svg" xmlns:xlink="http://www.w3.org/1999/xlink" viewBox="0 0 277.72 414.17"><defs><style>.e634dbc8-cc76-436b-9140-a195074990ff{isolation:isolate;}.aea15043-c5f6-4db2-9229-e7229ac2320f{mix-blend-mode:screen;}.fedc20a1-7ed7-4c3a-a48f-95dec29b5acf{fill:url(#e32b0f45-09b9-4eb1-b627-0893875c95bd);}.bffd2a39-1ed8-4841-b420-fe13c7c91c17{fill:url(#ef6223d2-5200-47cd-9712-5d5311c8e4f7);}.a3b69fa1-17f9-44ef-8c37-b633ee50e509{fill:url(#a05c7bbe-3806-4b12-bf99-880d24e98e0e);}.b8a0861f-c77a-411b-828b-22df5b29f655{fill:url(#a4df9341-1d6d-4da6-b69a-3c267f248fa2);}.f5d9878b-2f94-4e5c-bbc5-06cb644af611{fill:url(#a8149058-affd-4e58-8333-572902b48336);}.af0669d3-b459-433c-97db-f9fdc3a13c41{fill:url(#adacc829-2893-4cbd-8e01-ac5e55fb3db2);}.f32fb335-154b-4e04-9767-ecf0f0fbb5c5{fill:url(#acb00d0f-e723-4eaa-b459-6b8e558bffcb);}.b3fd9583-f727-48ac-aabc-097cbb43af15{fill:none;stroke:aqua;stroke-miterlimit:10;}.ae261fee-4c05-403a-9a8e-1ce6ce8c2020{fill:url(#b083a2a8-5ac0-4ecc-b712-5ebd54669e02);}.a9f5899b-5125-4ca1-b1f4-2d9b796eb31c{fill:url(#b0690387-73e1-4c20-b878-30517c892ef7);}.b2e91c41-cfcf-47c3-8ff4-b33728fb9df2{fill:url(#a9358dcf-5be9-42b5-99b5-f134cb5b2f4b);}.b3fe30d4-7f0f-4f00-8d82-445f8f731659{fill:url(#bd6ce941-113f-4cbc-a653-0b0bab23cc62);}</style><linearGradient id="e32b0f45-09b9-4eb1-b627-0893875c95bd" x1="33.43" x2="33.43" y2="145.15" gradientUnits="userSpaceOnUse"><stop offset="0" stop-color="#8cf6ca"/><stop offset="1" stop-color="#004f7f"/></linearGradient><linearGradient id="ef6223d2-5200-47cd-9712-5d5311c8e4f7" x1="54.41" y1="292.38" x2="54.41" y2="413.72" xlink:href="#e32b0f45-09b9-4eb1-b627-0893875c95bd"/><linearGradient id="a05c7bbe-3806-4b12-bf99-880d24e98e0e" x1="63.06" y1="145.15" x2="63.06" y2="292.38" xlink:href="#e32b0f45-09b9-4eb1-b627-0893875c95bd"/><linearGradient id="a4df9341-1d6d-4da6-b69a-3c267f248fa2" x1="134.48" y1="-61.17" x2="134.48" y2="258" gradientUnits="userSpaceOnUse"><stop offset="0" stop-color="#66bcab"/><stop offset="1" stop-color="#001f55"/></linearGradient><linearGradient id="a8149058-affd-4e58-8333-572902b48336" x1="101.47" y1="258" x2="101.47" y2="492.86" gradientUnits="userSpaceOnUse"><stop offset="0" stop-color="#66bcab"/><stop offset="0.84" stop-color="#001f55"/></linearGradient><linearGradient id="adacc829-2893-4cbd-8e01-ac5e55fb3db2" x1="149.82" y1="356.66" x2="195.68" y2="352.07" gradientUnits="userSpaceOnUse"><stop offset="0" stop-color="aqua"/><stop offset="1" stop-color="#00123f"/></linearGradient><linearGradient id="acb00d0f-e723-4eaa-b459-6b8e558bffcb" x1="141.58" y1="289.1" x2="153.05" y2="323.5" gradientTransform="translate(93.85 -29.35) rotate(16.68)" gradientUnits="userSpaceOnUse"><stop offset="0" stop-color="#00c3cf"/><stop offset="1" stop-color="#00123f"/></linearGradient><linearGradient id="b083a2a8-5ac0-4ecc-b712-5ebd54669e02" x1="197.68" y1="340.46" x2="243.54" y2="349.63" xlink:href="#adacc829-2893-4cbd-8e01-ac5e55fb3db2"/><linearGradient id="b0690387-73e1-4c20-b878-30517c892ef7" x1="-138.75" y1="-1582.33" x2="-126.16" y2="-1544.54" gradientTransform="translate(-1307.47 -51.53) rotate(106.68)" xlink:href="#acb00d0f-e723-4eaa-b459-6b8e558bffcb"/><linearGradient id="a9358dcf-5be9-42b5-99b5-f134cb5b2f4b" x1="219.34" y1="364.11" x2="258.9" y2="376.72" xlink:href="#adacc829-2893-4cbd-8e01-ac5e55fb3db2"/><linearGradient id="bd6ce941-113f-4cbc-a653-0b0bab23cc62" x1="-733.6" y1="-2533.94" x2="-722.68" y2="-2501.2" gradientTransform="translate(-2369.49 303.95) rotate(106.68)" xlink:href="#acb00d0f-e723-4eaa-b459-6b8e558bffcb"/></defs><g class="e634dbc8-cc76-436b-9140-a195074990ff"><g id="b9e60bab-68d4-4878-ad2c-b9be78723499" data-name="Слой 2"><g id="b53ffc7f-5bc3-4b24-be19-672bd24263e3" data-name="Слой 1"><g id="a8a3f3b2-0740-4b51-851d-06ae229e6124" data-name="seaweed"><g id="a7edeab9-6323-43bc-830d-9b850d9ea603" data-name="seaweed__2"><g id="b0870731-4e74-485a-94b4-146e11ea45dc" data-name="seaweed__2-1" class="aea15043-c5f6-4db2-9229-e7229ac2320f"><path id="a2d1e401-aa27-4fb2-9a7a-4a11a2b60d74" data-name="seaweed__2-1-2" class="fedc20a1-7ed7-4c3a-a48f-95dec29b5acf" d="M32.23,0C-1.7,28.13-29.49,72,61.36,140.66c2,1.49,3.78,3,5.5,4.49C62.34,116.08,45.71,89.38,32.23,66.2A64.41,64.41,0,0,1,32.23,0Z"/><path id="a48a3aad-0c49-4a29-8ff5-908ec63889dd" data-name="seaweed__2-1-2" class="bffd2a39-1ed8-4841-b420-fe13c7c91c17" d="M39.5,292.38c-18,36.86-28.27,77.21-.65,121.34H87C54.4,364.38,41.76,325.05,39.5,292.38Z"/><path id="f632141f-2cdc-4796-b3ee-f7d2f9b12edb" data-name="seaweed__2-1-1" class="a3b69fa1-17f9-44ef-8c37-b633ee50e509" d="M66.86,145.15a89,89,0,0,1-5.5,48.47c-11,26.79-24.72,57.46-21.86,98.76C67.42,235.25,113.93,186.52,66.86,145.15Z"/></g><path class="b8a0861f-c77a-411b-828b-22df5b29f655" d="M117.44,33.1c57.7,76.44-7.68,148.39-19.75,224.9,20.08-35.61,45.8-64.78,63.94-109.43C198.56,57.69,117.44,33.1,117.44,33.1Z"/><path class="f5d9878b-2f94-4e5c-bbc5-06cb644af611" d="M97.69,258c-20.78,36.88-35.5,80.67-29.47,155.72h67.87S94.85,363.47,95.85,279A146.4,146.4,0,0,1,97.69,258Z"/></g><g id="f86367a4-64f6-49f6-98fa-7e401cb97c51" data-name="seaweed__1"><path class="af0669d3-b459-433c-97db-f9fdc3a13c41" d="M122.31,317.86c19,16.44,33.86,54.66,40.55,96.31h21.6c16.82-58.86-5.43-112.71-12.08-120.75Z"/><ellipse class="f32fb335-154b-4e04-9767-ecf0f0fbb5c5" cx="147.01" cy="305.38" rx="29.05" ry="14.02" transform="translate(-81.47 55.05) rotate(-16.68)"/><path class="b3fd9583-f727-48ac-aabc-097cbb43af15" d="M174.35,319.2c-4.22,4.47-11.33,8.64-19.9,11.21-15.37,4.61-29.63,2.33-31.85-5.09a8.23,8.23,0,0,1,.62-5.88"/><path class="b3fd9583-f727-48ac-aabc-097cbb43af15" d="M184.62,337.25c-4.22,4.48-11.33,8.65-19.9,11.21-15.37,4.61-29.63,2.33-31.85-5.09a8.23,8.23,0,0,1,.62-5.88"/><path class="ae261fee-4c05-403a-9a8e-1ce6ce8c2020" d="M199,414.17c10.29-43.28,3.68-122.82-.47-143.81L259,279.27c-13.53,23.69-35.7,59.23-30.21,134.9Z"/><ellipse class="a9f5899b-5125-4ca1-b1f4-2d9b796eb31c" cx="229.25" cy="270.36" rx="15.4" ry="31.92" transform="translate(-73.58 454.59) rotate(-81.02)"/><path class="b2e91c41-cfcf-47c3-8ff4-b33728fb9df2" d="M227.06,317.32c-10,20-7.15,87.11-5.15,96.85h21.26c-.33-31.53,7.13-59.54,29.34-69.32Z"/><ellipse class="b3fe30d4-7f0f-4f00-8d82-445f8f731659" cx="252.07" cy="329.12" rx="13.35" ry="27.65" transform="translate(-153.15 416.65) rotate(-64.74)"/><path class="b3fd9583-f727-48ac-aabc-097cbb43af15" d="M247,353.6a52.45,52.45,0,0,1-12.18-4.09c-13.81-6.51-22.45-17.2-19.31-23.86,1.18-2.5,3.85-4.08,7.46-4.74"/><path class="b3fd9583-f727-48ac-aabc-097cbb43af15" d="M245,369.62a45.5,45.5,0,0,1-11-1.55c-12.79-3.35-21.85-11.08-20.22-17.26.6-2.31,2.63-4.08,5.59-5.21"/></g></g></g></g></g></svg>