<svg xmlns="http://www.w3.org/2000/svg" viewBox="0 0 316.23 313.58"><defs><style>.f6c68d47-c64d-400e-8931-28f2db62e06c{fill:none;stroke:aqua;stroke-miterlimit:10;}.f181c6ae-bea8-4b42-8e01-f569385c6c0d{fill:aqua;}</style></defs><g id="bd72faaf-ac81-47c6-897f-f80c4fac31f2" data-name="Слой 2"><g id="e93c8f1d-49fc-4b05-884f-d7cb1030c8ad" data-name="Слой 1"><path class="f6c68d47-c64d-400e-8931-28f2db62e06c" d="M.5,313.58C.5,149,133.68,15.82,298.26,15.82"/><path class="f181c6ae-bea8-4b42-8e01-f569385c6c0d" d="M167.67,59c-.77-1.19-1.51-2.33-3.22-2.54a10.35,10.35,0,0,1-8.66-13.39c.51-1.65-.23-2.79-1-4-2.31-3.57-6.18-5.17-8.65-3.58s-2.59,5.79-.28,9.35c.77,1.19,2,2.55,3.21,2.54h0a10.36,10.36,0,0,1,8.67,13.39h0c-.49,1.06.23,2.79,1,4,2.31,3.57,6.18,5.17,8.65,3.58S170,62.58,167.67,59Z"/><path class="f181c6ae-bea8-4b42-8e01-f569385c6c0d" d="M218.52,38.42c-.64-1.27-1.25-2.48-2.94-2.88a10.42,10.42,0,0,1-7.23-14.32c.69-1.59.07-2.81-.57-4.08-1.93-3.81-5.63-5.83-8.26-4.49s-3.22,5.5-1.29,9.31c.64,1.27,1.78,2.77,2.94,2.88h0a10.43,10.43,0,0,1,7.23,14.33h0c-.6,1-.07,2.8.57,4.07,1.93,3.82,5.63,5.83,8.27,4.5S220.45,42.24,218.52,38.42Z"/><path class="f181c6ae-bea8-4b42-8e01-f569385c6c0d" d="M271.1,28.34c-.52-1.36-1-2.65-2.67-3.23a10.6,10.6,0,0,1-5.8-15.25c.86-1.54.37-2.83-.14-4.18-1.55-4.07-5.07-6.5-7.88-5.43s-3.84,5.23-2.29,9.29c.51,1.35,1.5,3,2.67,3.22h0A10.59,10.59,0,0,1,260.78,28h0c-.71,1-.37,2.84.15,4.19,1.54,4.06,5.07,6.49,7.88,5.42S272.64,32.4,271.1,28.34Z"/><path class="f181c6ae-bea8-4b42-8e01-f569385c6c0d" d="M308.14,10c-1.45.06-3.31.48-3.91,1.51a10.53,10.53,0,0,1-8,4.16c-1,0-1,.56,0,.52a10.52,10.52,0,0,1,8.31,3.49c1.19,1.3,2.56,1.25,4,1.19,4.34-.18,7.76-2.75,7.64-5.76S312.48,9.77,308.14,10Z"/></g></g></svg>