<svg xmlns="http://www.w3.org/2000/svg" viewBox="0 0 392.02 180.07"><defs><style>.f3478e49-0715-4d00-bb2d-8c313915f722{fill:aqua;}</style></defs><g id="fb34e27b-3297-4afb-9e31-4ffe4ae2d86b" data-name="Слой 2"><g id="a8edbea8-22f1-4c21-bc98-b81c0fca1700" data-name="Слой 1"><path class="f3478e49-0715-4d00-bb2d-8c313915f722" d="M198.12,33.71c.4-1.24.78-2.42,2.25-3a9.52,9.52,0,0,0,4.53-13.94c-.85-1.34-.46-2.52-.06-3.76,1.21-3.71,4.27-6,6.83-5.21s3.67,4.52,2.47,8.23c-.41,1.24-1.22,2.74-2.26,3h0A9.54,9.54,0,0,0,207.35,33h0c.68.82.46,2.52.06,3.76-1.21,3.71-4.27,6-6.83,5.21S196.91,37.42,198.12,33.71Z"/><path class="f3478e49-0715-4d00-bb2d-8c313915f722" d="M148.11,27.45c.27-1.28.52-2.51,1.93-3.26a9.57,9.57,0,0,0,3-14.42c-1-1.25-.72-2.47-.45-3.75.8-3.84,3.61-6.5,6.27-5.95S163,4.2,162.23,8c-.27,1.28-.92,2.87-1.93,3.25h0a9.58,9.58,0,0,0-3,14.42h0c.77.76.72,2.48.45,3.76-.8,3.84-3.61,6.5-6.27,5.94S147.3,31.29,148.11,27.45Z"/><path class="f3478e49-0715-4d00-bb2d-8c313915f722" d="M99.06,30.91c.13-1.32.26-2.58,1.61-3.49a9.74,9.74,0,0,0,1.54-14.91c-1.13-1.16-1-2.42-.86-3.74.41-4,3-7,5.71-6.68s4.64,3.73,4.23,7.7c-.14,1.33-.63,3-1.61,3.5h0a9.73,9.73,0,0,0-1.54,14.9h0c.85.68,1,2.43.86,3.75-.41,4-3,7-5.72,6.68S98.65,34.88,99.06,30.91Z"/><path class="f3478e49-0715-4d00-bb2d-8c313915f722" d="M61.83,23.35c1.3-.29,3-.36,3.83.41a9.69,9.69,0,0,0,8.08,1.81c.87-.2,1,.26.1.46a9.68,9.68,0,0,0-6.55,5.06c-.75,1.44-2,1.72-3.28,2-3.9.87-7.54-.61-8.14-3.3S57.94,24.21,61.83,23.35Z"/><path class="f3478e49-0715-4d00-bb2d-8c313915f722" d="M232.84,88.85c.28-1.3.55-2.54,2-3.3A9.74,9.74,0,0,0,238,70.9c-1-1.28-.73-2.52-.45-3.82.84-3.91,3.7-6.6,6.4-6s4.21,4.22,3.37,8.12c-.28,1.3-.95,2.92-2,3.3h0a9.74,9.74,0,0,0-3.14,14.65h0c.78.77.73,2.52.45,3.82-.83,3.9-3.7,6.6-6.4,6S232,92.75,232.84,88.85Z"/><path class="f3478e49-0715-4d00-bb2d-8c313915f722" d="M141.57,91.31c0-1.3,0-2.54,1.21-3.56a9.52,9.52,0,0,0,0-14.65c-1.21-1-1.21-2.26-1.21-3.56,0-3.9,2.19-7.07,4.88-7.07s4.89,3.17,4.89,7.07c0,1.3-.31,3-1.22,3.56h0a9.52,9.52,0,0,0,0,14.65h0c.91.58,1.22,2.26,1.22,3.56,0,3.91-2.19,7.07-4.89,7.07S141.57,95.22,141.57,91.31Z"/><path class="f3478e49-0715-4d00-bb2d-8c313915f722" d="M51.11,104.53c-.28-1.3-.54-2.54.45-3.82a9.74,9.74,0,0,0-3.14-14.66c-1.43-.76-1.69-2-2-3.3-.84-3.9.67-7.53,3.37-8.11s5.56,2.12,6.4,6c.28,1.3.33,3-.45,3.82h0a9.74,9.74,0,0,0,3.14,14.65h0c1,.39,1.69,2,2,3.3.84,3.91-.67,7.54-3.37,8.12S52,108.43,51.11,104.53Z"/><path class="f3478e49-0715-4d00-bb2d-8c313915f722" d="M5.6,99.44c1.27-.39,3-.59,3.84.12a9.68,9.68,0,0,0,8.2,1.16c.85-.26,1,.19.14.45a9.7,9.7,0,0,0-6.13,5.57C11,108.23,9.8,108.6,8.53,109c-3.81,1.18-7.56,0-8.37-2.65S1.78,100.61,5.6,99.44Z"/><path class="f3478e49-0715-4d00-bb2d-8c313915f722" d="M392,177.53A273.91,273.91,0,0,0,71.86,25.74l.26,1c131.49-35,266.56,32.6,319.9,153.36Z"/><path class="f3478e49-0715-4d00-bb2d-8c313915f722" d="M392,116.69c-24-14.33-54.54-25.3-90.7-32.36-83-16.21-186.08-9.88-290.16,17.83l.26,1c103.93-27.66,206.82-34,289.7-17.81C337.43,92.4,368,103.44,392,117.85Z"/></g></g></svg>