<svg width="46" height="34" viewBox="0 0 46 34" fill="none" xmlns="http://www.w3.org/2000/svg">
<path d="M6.34519 0.063364C5.5716 0.151272 4.63978 0.467739 3.86619 0.889698C3.10139 1.32045 1.95859 2.45446 1.48389 3.26321C1.02677 4.05438 0.683927 5.01258 0.806998 5.19718C0.886115 5.30267 22.6785 18.6383 22.9686 18.7526C23.0829 18.7965 45.0686 5.39058 45.2005 5.19718C45.262 5.10048 45.2268 4.88951 45.0862 4.46755C44.7609 3.51814 44.2335 2.71818 43.4072 1.90064C42.783 1.27649 42.5105 1.0743 41.816 0.740255C40.1809 -0.0597057 41.9743 0.0194111 23.3993 0.00182915C14.3536 -0.00696182 6.67924 0.0194111 6.34519 0.063364Z" fill="white"/>
<path d="M0.5 18.2691C0.5 27.7983 0.5 27.684 0.939539 28.8795C1.68676 30.875 3.54161 32.4925 5.67777 32.9936C6.31071 33.1431 7.28649 33.1519 23.0044 33.1519C38.7223 33.1519 39.6981 33.1431 40.3311 32.9936C42.52 32.4838 44.3836 30.8311 45.1045 28.7389C45.5088 27.5873 45.5176 27.473 45.4912 18.1899L45.4649 9.38157L35.0038 15.7549C29.2459 19.2624 24.3582 22.2249 24.1296 22.348C23.5319 22.6557 22.8198 22.7084 22.2132 22.4974C21.9407 22.4007 17.0618 19.4822 11.1808 15.8868C5.37889 12.3353 0.605489 9.42552 0.570326 9.39915C0.526372 9.38157 0.5 13.3726 0.5 18.2691Z" fill="white"/>
</svg>
