<svg width="41" height="40" viewBox="0 0 41 40" fill="none" xmlns="http://www.w3.org/2000/svg">
<path d="M3.27978 0.731007C2.05641 1.02338 1.14082 2.03131 0.917686 3.30853C0.802274 3.98561 0.933074 6.7555 1.1639 8.4559C2.11797 15.4729 4.8186 21.5974 9.40429 27.1295C10.2276 28.1221 12.7512 30.6457 13.7438 31.469C19.2758 36.0547 25.4004 38.7553 32.4174 39.7094C34.1332 39.9402 36.8877 40.071 37.5724 39.9556C38.8728 39.7325 39.8961 38.763 40.1654 37.4935C40.2192 37.2242 40.25 35.7931 40.25 33.2233C40.25 29.0992 40.2346 28.8915 39.8576 28.1605C39.6499 27.745 39.142 27.1988 38.7496 26.9756C38.1649 26.6294 37.7879 26.5448 36.5184 26.4755C34.1255 26.337 32.5944 26.0908 30.6708 25.5368C29.6937 25.2522 29.5398 25.2291 28.8935 25.2598C28.278 25.2829 28.1318 25.3214 27.6855 25.5522C27.4008 25.6984 26.139 26.6063 24.8695 27.5758C23.5999 28.5375 22.5305 29.3223 22.4997 29.3223C22.3997 29.3223 20.9147 28.4529 20.0145 27.8758C16.6906 25.7138 14.1516 22.9978 12.0895 19.3662C11.6202 18.5506 11.5356 18.3582 11.6125 18.2428C11.6587 18.1659 12.4666 17.0887 13.4052 15.8499C14.3439 14.6035 15.198 13.4494 15.2903 13.2801C15.3903 13.1031 15.5288 12.7492 15.5981 12.4799C15.7519 11.8567 15.7058 11.4566 15.3211 10.087C14.7902 8.1943 14.5286 6.52467 14.4362 4.47034C14.3824 3.28545 14.267 2.70839 13.9669 2.19289C13.536 1.46194 12.682 0.854111 11.8587 0.70023C11.2509 0.584816 3.7722 0.607899 3.27978 0.731007Z" fill="white"/>
</svg>
