<svg xmlns="http://www.w3.org/2000/svg" xmlns:xlink="http://www.w3.org/1999/xlink" viewBox="0 0 419.78 373.29"><defs><style>.f4abff2f-b8ba-4b79-afbd-61e8488fd680{fill:url(#aeec5d4a-db4d-4937-b123-2037200ed6ab);}.a2019ae5-b328-40d1-a1cc-51f8022f1c28{fill:url(#aef21fd1-c859-4d0e-af96-ce464bda9141);}.abbe4835-6fc6-4ace-a3d4-ed72899c0397{fill:url(#eb9cce0e-babd-4d8b-bccc-0d4bf31d3961);}.b04c74b3-9d12-46e6-ac9c-abe4fed0ee7d{fill:url(#b74edf33-4559-48c7-888f-51966a5e8975);}.fe6e348b-7419-4b48-9ab3-cbeeef0698ec{fill:#090e16;}.e1698274-9b73-4336-aacd-863ce2efa555{fill:none;stroke:#090e16;stroke-miterlimit:10;}</style><linearGradient id="aeec5d4a-db4d-4937-b123-2037200ed6ab" y1="97.83" x2="419.78" y2="97.83" gradientUnits="userSpaceOnUse"><stop offset="0" stop-color="aqua"/><stop offset="1" stop-color="#00123f"/></linearGradient><linearGradient id="aef21fd1-c859-4d0e-af96-ce464bda9141" x1="117.39" y1="190.33" x2="220.56" y2="190.33" gradientUnits="userSpaceOnUse"><stop offset="0" stop-color="#4c9fe6"/><stop offset="0.88" stop-color="#0d3f3d"/><stop offset="1" stop-color="#043125"/></linearGradient><linearGradient id="eb9cce0e-babd-4d8b-bccc-0d4bf31d3961" x1="173.42" y1="225.46" x2="329.5" y2="346.86" xlink:href="#aeec5d4a-db4d-4937-b123-2037200ed6ab"/><linearGradient id="b74edf33-4559-48c7-888f-51966a5e8975" x1="149.22" y1="81.07" x2="401.36" y2="246.49" xlink:href="#aeec5d4a-db4d-4937-b123-2037200ed6ab"/></defs><g id="a981949d-ba00-4e65-8d96-d07ab31b520e" data-name="Слой 2"><g id="a195eec7-3a28-4b9c-b41c-1ecf03bb6fff" data-name="Слой 1"><path class="f4abff2f-b8ba-4b79-afbd-61e8488fd680" d="M419.78,195.66c-.1-68.92-207.29-71.48-221.51-109.39h0C198.26,39.14,149.41,22.24,0,0,117.61,1.12,235.52,19.26,334.39,77.3c35.45,22,70.31,51.91,82,93.42A94.62,94.62,0,0,1,419.78,195.66Z"/><path id="f8ada6f0-fa02-4df8-980d-417675cc366b" data-name="fishTree-1__tail" class="a2019ae5-b328-40d1-a1cc-51f8022f1c28" d="M117.39,109.4c19.57,21.34,23.12,63.14,23.12,80.93s-3.55,59.58-23.12,80.93c61.37-25.79,103.17-80.93,103.17-80.93S178.76,135.19,117.39,109.4Z"/><path class="abbe4835-6fc6-4ace-a3d4-ed72899c0397" d="M354,220.57C315.6,195,173,194.34,186,142.27c-4.18,14.32-8.1,29.78-9.23,48.07-.12,1.75-.2,3.51-.26,5.31h0c.06,1.8.14,3.57.26,5.32,4.2,67.76,46.53,96.75-.34,172.31,73.65-15.91,135.71-41.46,178.72-73.2C372.94,285.52,387.25,242.76,354,220.57Z"/><path class="b04c74b3-9d12-46e6-ac9c-abe4fed0ee7d" d="M419.78,195.66c0-46.48-95.11-67.4-160.68-84.78-31.14-8.25-60.66-14-60.84-24.49v.19c-.52,19.21-6.65,36.41-12.28,55.69C173,194.34,315.6,195,354,220.57c33.29,22.19,19,64.95,1.17,79.52C396.08,269.88,419.78,234.07,419.78,195.66Z"/><circle class="fe6e348b-7419-4b48-9ab3-cbeeef0698ec" cx="371.8" cy="164.28" r="5.1"/><path class="e1698274-9b73-4336-aacd-863ce2efa555" d="M359.94,256.86c-21.25-18.21-38-44.93-45.93-76.8-7.64-30.87-5.66-61.36,3.83-86.9"/><path class="e1698274-9b73-4336-aacd-863ce2efa555" d="M339,234.88c-15.92,15.48-49.33,26.82-73.05,26.62"/><path class="e1698274-9b73-4336-aacd-863ce2efa555" d="M339,234.88c-14.46,17-44.46,34.12-72.77,42.74"/><path class="e1698274-9b73-4336-aacd-863ce2efa555" d="M339,234.88c-12.7,18.26-38.06,39.43-67.16,55.94"/><path class="e1698274-9b73-4336-aacd-863ce2efa555" d="M339,234.88c-10.63,19.13-30.51,42.45-56.26,64.76"/><path class="e1698274-9b73-4336-aacd-863ce2efa555" d="M339,234.88c-8.29,19.65-22.15,43-40.93,67.78"/></g></g></svg>