<svg xmlns="http://www.w3.org/2000/svg" xmlns:xlink="http://www.w3.org/1999/xlink" viewBox="0 0 408.56 242.82"><defs><style>.b12a269f-6936-4d3a-aef6-6a736dd96d19{fill:url(#f534c4a5-2964-41ae-9d4b-a5f816a56e31);}.a3e6330d-648e-4798-bc2a-54679b6f1e72{fill:none;stroke:#fff;stroke-miterlimit:10;}.a3627c91-16fc-4812-9d0c-6f99e2c0b6d4{fill:url(#a5ca95a4-a0e2-47be-8cd9-392316ccf0ec);}.a6579689-15d9-4a0d-adbb-332dcc039f4e{fill:url(#f557ff87-4fad-444f-b3ca-77d85d85f336);}.afd5bf7d-5730-4c88-b7e1-abab60588612{fill:url(#f5d0e8ff-0d2f-45b4-a689-bd2fe8f888cc);}.a07a7bf6-a509-46b5-99d6-8d0f6fba0c0b{fill:url(#eda188de-d7ca-421b-b515-7a2a6b926c93);}.ba276892-4c3f-4b03-8b3c-4ec30f9d7cc2{fill:#090e16;}</style><linearGradient id="f534c4a5-2964-41ae-9d4b-a5f816a56e31" x1="-5092.03" y1="-7617.73" x2="-5027.96" y2="-7799.93" gradientTransform="translate(-4778.94 -7549.21) rotate(180)" gradientUnits="userSpaceOnUse"><stop offset="0" stop-color="#86c2e6"/><stop offset="1" stop-color="#043163"/></linearGradient><linearGradient id="a5ca95a4-a0e2-47be-8cd9-392316ccf0ec" x1="-1026.29" y1="195.19" x2="-874.14" y2="195.19" gradientTransform="translate(1026.29)" gradientUnits="userSpaceOnUse"><stop offset="0" stop-color="#d40082"/><stop offset="0.02" stop-color="#d20884"/><stop offset="0.18" stop-color="#bf4697"/><stop offset="0.33" stop-color="#b07ca6"/><stop offset="0.49" stop-color="#a3a8b3"/><stop offset="0.63" stop-color="#99cabd"/><stop offset="0.77" stop-color="#92e2c4"/><stop offset="0.9" stop-color="#8df1c9"/><stop offset="1" stop-color="#8cf6ca"/></linearGradient><linearGradient id="f557ff87-4fad-444f-b3ca-77d85d85f336" x1="-1026.29" y1="103.85" x2="-874.14" y2="103.85" xlink:href="#a5ca95a4-a0e2-47be-8cd9-392316ccf0ec"/><linearGradient id="f5d0e8ff-0d2f-45b4-a689-bd2fe8f888cc" x1="-959.95" y1="179.92" x2="-874.14" y2="179.92" xlink:href="#a5ca95a4-a0e2-47be-8cd9-392316ccf0ec"/><linearGradient id="eda188de-d7ca-421b-b515-7a2a6b926c93" x1="-767.16" y1="190.27" x2="-742.69" y2="120.66" xlink:href="#a5ca95a4-a0e2-47be-8cd9-392316ccf0ec"/></defs><g id="e1a9bc68-b1b5-4183-bf9b-87253aad67f4" data-name="Слой 2"><g id="ac5ab606-3691-4f3d-b2e2-0e78805b202f" data-name="Слой 1"><path class="b12a269f-6936-4d3a-aef6-6a736dd96d19" d="M152.14,152.14c12.36,35.18,54.34,67,108.85,78.29,71.19,14.77,136.73-11,146.39-57.55a58.32,58.32,0,0,0,.47-20.74Z"/><path class="a3e6330d-648e-4798-bc2a-54679b6f1e72" d="M348.59,152.14A59.88,59.88,0,0,0,375,201.88"/><line class="a3e6330d-648e-4798-bc2a-54679b6f1e72" x1="375.01" y1="201.88" x2="375.01" y2="242.82"/><line class="a3e6330d-648e-4798-bc2a-54679b6f1e72" x1="375.01" y1="201.88" x2="364.42" y2="241.43"/><line class="a3e6330d-648e-4798-bc2a-54679b6f1e72" x1="375.01" y1="201.88" x2="354.54" y2="237.34"/><line class="a3e6330d-648e-4798-bc2a-54679b6f1e72" x1="375.01" y1="201.88" x2="346.06" y2="230.83"/><line class="a3e6330d-648e-4798-bc2a-54679b6f1e72" x1="375.01" y1="201.88" x2="339.55" y2="222.35"/><line class="a3e6330d-648e-4798-bc2a-54679b6f1e72" x1="375.01" y1="201.88" x2="335.46" y2="212.48"/><line class="a3e6330d-648e-4798-bc2a-54679b6f1e72" x1="375.01" y1="201.88" x2="334.07" y2="201.88"/><path id="bcb4a3b8-4b47-4e4a-ba5c-dd386668d003" data-name="fishFour__tail-1" class="a3627c91-16fc-4812-9d0c-6f99e2c0b6d4" d="M66.05,238.24a86,86,0,0,0,86.09-86.1H1.21c-8.51,34.54,30,30,49.05,48.05S66.05,238.24,66.05,238.24Z"/><path id="a5f17b01-4652-4eb6-8473-51483c2ff2d5" data-name="fishFour__tail-1" class="a6579689-15d9-4a0d-adbb-332dcc039f4e" d="M152.14,152.14A152.06,152.06,0,0,0,0,0C0,33.51,10.22,51.53,35.25,66.55s35,36.54,24,58.06,14,32.54,32,44.05,8,39,8,39C119.84,206.2,152.14,184.68,152.14,152.14Z"/><path id="bc1f08e8-2cca-479e-bf23-4f6fb8fe92ba" data-name="fishFour__tail-1" class="afd5bf7d-5730-4c88-b7e1-abab60588612" d="M91.31,168.66c18,11.51,8,39,8,39,20.52-1.5,52.82-23,52.82-55.56H66.34C73.39,158.24,83.07,163.4,91.31,168.66Z"/><path class="a07a7bf6-a509-46b5-99d6-8d0f6fba0c0b" d="M348.59,152.14,211.44,109.6c-.5,23.52,11,43.24,38,58.06Z"/><circle class="ba276892-4c3f-4b03-8b3c-4ec30f9d7cc2" cx="382.12" cy="167.66" r="5.01"/></g></g></svg>