<svg xmlns="http://www.w3.org/2000/svg" xmlns:xlink="http://www.w3.org/1999/xlink" viewBox="0 0 419.78 373.29"><defs><style>.ee8db515-789b-42c4-b4a5-2a170f099717{fill:url(#f86e6996-63d1-43de-ac0e-10be01f30211);}.e5e8797e-032a-4c67-8dad-fe60fcef5657{fill:url(#ef05c544-0bf4-4954-a592-9e05da3c3f8c);}.ae588a6a-3b16-41e5-a2da-56dac241d2a2{fill:url(#a6a88d44-8de0-4a9a-8154-b95a1f6841cf);}.a1f5f9fa-c561-441c-96fe-204cef424e86{fill:#090e16;}.ae6d0b4f-9a3a-4fa2-8ed8-d1ac5bc80797{fill:none;stroke:#090e16;stroke-miterlimit:10;}</style><linearGradient id="f86e6996-63d1-43de-ac0e-10be01f30211" y1="97.83" x2="419.78" y2="97.83" gradientUnits="userSpaceOnUse"><stop offset="0" stop-color="aqua"/><stop offset="1" stop-color="#00123f"/></linearGradient><linearGradient id="ef05c544-0bf4-4954-a592-9e05da3c3f8c" x1="173.42" y1="225.46" x2="329.5" y2="346.86" xlink:href="#f86e6996-63d1-43de-ac0e-10be01f30211"/><linearGradient id="a6a88d44-8de0-4a9a-8154-b95a1f6841cf" x1="149.22" y1="81.07" x2="401.36" y2="246.49" xlink:href="#f86e6996-63d1-43de-ac0e-10be01f30211"/></defs><g id="b8e24980-d2b0-437e-ae4b-efca0f0562e7" data-name="Слой 2"><g id="e6193734-2e5a-4de2-9710-eb469b2235d1" data-name="Слой 1"><path class="ee8db515-789b-42c4-b4a5-2a170f099717" d="M419.78,195.66c-.1-68.92-207.29-71.48-221.51-109.39h0C198.26,39.14,149.41,22.24,0,0,117.61,1.12,235.52,19.26,334.39,77.3c35.45,22,70.31,51.91,82,93.42A94.62,94.62,0,0,1,419.78,195.66Z"/><path class="e5e8797e-032a-4c67-8dad-fe60fcef5657" d="M354,220.57C315.6,195,173,194.34,186,142.27c-4.18,14.32-8.1,29.78-9.23,48.07-.12,1.75-.2,3.51-.26,5.31h0c.06,1.8.14,3.57.26,5.32,4.2,67.76,46.53,96.75-.34,172.31,73.65-15.91,135.71-41.46,178.72-73.2C372.94,285.52,387.25,242.76,354,220.57Z"/><path class="ae588a6a-3b16-41e5-a2da-56dac241d2a2" d="M419.78,195.66c0-46.48-95.11-67.4-160.68-84.78-31.14-8.25-60.66-14-60.84-24.49v.19c-.52,19.21-6.65,36.41-12.28,55.69C173,194.34,315.6,195,354,220.57c33.29,22.19,19,64.95,1.17,79.52C396.08,269.88,419.78,234.07,419.78,195.66Z"/><circle class="a1f5f9fa-c561-441c-96fe-204cef424e86" cx="371.8" cy="164.28" r="5.1"/><path class="ae6d0b4f-9a3a-4fa2-8ed8-d1ac5bc80797" d="M359.94,256.86c-21.25-18.21-38-44.93-45.93-76.8-7.64-30.87-5.66-61.36,3.83-86.9"/><path class="ae6d0b4f-9a3a-4fa2-8ed8-d1ac5bc80797" d="M339,234.88c-15.92,15.48-49.33,26.82-73.05,26.62"/><path class="ae6d0b4f-9a3a-4fa2-8ed8-d1ac5bc80797" d="M339,234.88c-14.46,17-44.46,34.12-72.77,42.74"/><path class="ae6d0b4f-9a3a-4fa2-8ed8-d1ac5bc80797" d="M339,234.88c-12.7,18.26-38.06,39.43-67.16,55.94"/><path class="ae6d0b4f-9a3a-4fa2-8ed8-d1ac5bc80797" d="M339,234.88c-10.63,19.13-30.51,42.45-56.26,64.76"/><path class="ae6d0b4f-9a3a-4fa2-8ed8-d1ac5bc80797" d="M339,234.88c-8.29,19.65-22.15,43-40.93,67.78"/></g></g></svg>