<svg xmlns="http://www.w3.org/2000/svg" xmlns:xlink="http://www.w3.org/1999/xlink" viewBox="0 0 496.27 520.23"><defs><style>.cls-1{isolation:isolate;}.cls-2{fill:url(#Безымянный_градиент_935);}.cls-3{fill:url(#Безымянный_градиент_935-2);}.cls-4{fill:url(#Безымянный_градиент_935-3);}.cls-5{mix-blend-mode:screen;fill:url(#Безымянный_градиент_930);}.cls-6{fill:url(#Безымянный_градиент_925);}.cls-7{fill:url(#Безымянный_градиент_329);}</style><linearGradient id="Безымянный_градиент_935" x1="-2.28" y1="308.92" x2="386.32" y2="308.92" gradientUnits="userSpaceOnUse"><stop offset="0" stop-color="aqua"/><stop offset="1" stop-color="#00123f"/></linearGradient><linearGradient id="Безымянный_градиент_935-2" x1="200.01" y1="281.9" x2="359.48" y2="281.9" xlink:href="#Безымянный_градиент_935"/><linearGradient id="Безымянный_градиент_935-3" x1="65.2" y1="335.63" x2="402.99" y2="335.63" xlink:href="#Безымянный_градиент_935"/><linearGradient id="Безымянный_градиент_930" x1="417.81" y1="1.92" x2="415.02" y2="158.61" gradientUnits="userSpaceOnUse"><stop offset="0" stop-color="#fff"/><stop offset="0.27" stop-color="#2df"/><stop offset="1" stop-color="#00123f"/></linearGradient><linearGradient id="Безымянный_градиент_925" x1="394.39" y1="151.69" x2="394.39" y2="90.89" gradientUnits="userSpaceOnUse"><stop offset="0" stop-color="#1c64ae"/><stop offset="1" stop-color="#182010"/></linearGradient><linearGradient id="Безымянный_градиент_329" x1="330.05" y1="138.61" x2="430.56" y2="138.61" gradientUnits="userSpaceOnUse"><stop offset="0" stop-color="#8cf6ca"/><stop offset="0.1" stop-color="#8df1c9"/><stop offset="0.23" stop-color="#92e2c4"/><stop offset="0.37" stop-color="#99cabd"/><stop offset="0.51" stop-color="#a3a8b3"/><stop offset="0.67" stop-color="#b07ca6"/><stop offset="0.82" stop-color="#bf4697"/><stop offset="0.98" stop-color="#d20884"/><stop offset="1" stop-color="#d40082"/></linearGradient></defs><g class="cls-1"><g id="Слой_2" data-name="Слой 2"><g id="Слой_1-2" data-name="Слой 1"><g id="leg3"><path class="cls-2" d="M386.32,131.87a48.93,48.93,0,0,0-11.45,12.07,87.74,87.74,0,0,0-8,15.1c-4.47,10.63-7.7,21.87-11,33.11s-6.5,22.57-10.33,33.72a252.69,252.69,0,0,1-13.66,32.67,181.2,181.2,0,0,1-19,29.92,170.07,170.07,0,0,1-24.73,25.38C270,329,248.83,340.37,226.67,348.28s-45.26,12.82-68.06,18.1c-11.42,2.64-22.79,5.43-34,8.85A227,227,0,0,0,92,387.83a169.44,169.44,0,0,0-29.76,18.4,162.31,162.31,0,0,0-13.26,11.46,170.7,170.7,0,0,0-12,12.76c-3.81,4.44-7.44,9.05-10.83,13.82s-6.62,9.66-9.68,14.65A302.93,302.93,0,0,0,0,490a306.34,306.34,0,0,1,16.11-31.25c3-5,6.17-10,9.57-14.76s7-9.47,10.73-13.95a170.11,170.11,0,0,1,12-12.92,164.2,164.2,0,0,1,13.22-11.64,170.83,170.83,0,0,1,29.8-18.78,229.21,229.21,0,0,1,32.77-13c11.2-3.54,22.59-6.44,34-9.19,22.79-5.48,45.74-10.47,67.63-18.62s42.62-19.38,60.32-34.48a166,166,0,0,0,24-25.11,177.64,177.64,0,0,0,18.4-29.49,249.69,249.69,0,0,0,13.16-32.29c3.69-11.06,6.81-22.32,10-33.62s6.33-22.67,10.86-33.71a91.36,91.36,0,0,1,8.3-16,53.69,53.69,0,0,1,12.52-13.41Z"/></g><g id="leg2"><path class="cls-3" d="M359.48,129.2a76.63,76.63,0,0,0-15.86,14.33,101.17,101.17,0,0,0-11.89,18C325,174.43,320,188.31,314.6,202a437.1,437.1,0,0,1-17.79,40.66c-3.36,6.6-7,13.05-10.85,19.39s-8,12.47-12.34,18.48c-1.08,1.5-2.22,3-3.32,4.44s-2.21,3-3.39,4.4L260,298c-4.66,5.68-9,11.64-13.2,17.64s-8.11,12.26-11.77,18.64-7.12,12.87-10.24,19.53a252,252,0,0,0-15.34,41.33q-2.89,10.67-4.74,21.57a150.13,150.13,0,0,0-2.17,22,150.66,150.66,0,0,1,1.86-22q1.68-10.93,4.44-21.68a254.37,254.37,0,0,1,14.81-41.7c3-6.73,6.45-13.3,10-19.77s7.51-12.74,11.57-18.92,8.43-12.16,13-17.95l6.8-8.71c1.15-1.43,2.2-2.93,3.29-4.4s2.19-2.95,3.24-4.46c4.2-6,8.22-12.16,12-18.47s7.24-12.76,10.46-19.34a426.77,426.77,0,0,0,17.08-40.6c5.19-13.77,10-27.79,16.75-41.17a105.6,105.6,0,0,1,12.17-19,81.44,81.44,0,0,1,16.64-15.46Z"/></g><g id="leg1"><path class="cls-4" d="M403,152.36A81.62,81.62,0,0,1,396.76,168a75.92,75.92,0,0,1-9.5,13.9c-7.36,8.52-16.4,15.29-25.88,20.92A296,296,0,0,1,332,217.63c-9.95,4.49-19.94,8.82-29.71,13.54a258.07,258.07,0,0,0-28.42,15.69,165.5,165.5,0,0,0-25.42,20,147.56,147.56,0,0,0-20.65,24.89,287.31,287.31,0,0,0-15.94,28.36c-9.65,19.48-17.29,39.9-24.49,60.46-3.61,10.27-7.14,20.59-10.91,30.83s-7.78,20.4-12.46,30.28A173.33,173.33,0,0,1,147.49,470a121.59,121.59,0,0,1-22.55,23.66,123.7,123.7,0,0,1-28.07,16.69A160,160,0,0,1,81.55,516c-5.21,1.62-10.48,3-15.8,4.21,5.31-1.25,10.57-2.68,15.76-4.34a162.3,162.3,0,0,0,15.25-5.83,123.28,123.28,0,0,0,27.84-16.87,120.71,120.71,0,0,0,22.22-23.71A172.27,172.27,0,0,0,163,441.22c9.12-19.77,15.72-40.58,22.81-61.18s14.52-41.2,24.07-60.89a296.63,296.63,0,0,1,15.83-28.75,150.23,150.23,0,0,1,20.74-25.56,167.65,167.65,0,0,1,25.66-20.66A261.88,261.88,0,0,1,300.71,228c9.81-4.87,19.78-9.33,29.65-13.91a289.21,289.21,0,0,0,28.81-14.91c9.17-5.58,17.73-12.17,24.56-20.26a71.17,71.17,0,0,0,8.76-13.13A76.52,76.52,0,0,0,398.17,151Z"/></g><path class="cls-5" d="M453.07,11.69C411.71-12.19,349.82-.15,338,54a52.73,52.73,0,0,0,4.79,35.75c15.77-2.31,21,.36,24.38,10.72s22.81,3.77,30,8,11.24,24.28,21.91,22,15.59,1,21.48,15.76A52.71,52.71,0,0,0,474,132.51C514.94,95.18,494.42,35.56,453.07,11.69Z"/><path class="cls-6" d="M419.12,130.48c-10.67,2.24-14.67-17.87-21.91-22s-26.65,2.4-30-8c-1.54-4.71-3.47-7.81-6.59-9.6,12.63,14.93-2.51,36.25-2.51,36.25l26.79,2.71,15.73,21.84s10.9-23.77,30.14-20.3C427.62,129.59,424,129.47,419.12,130.48Z"/><path class="cls-7" d="M330.41,111.18a61.46,61.46,0,0,1,7.79-1.45,23.35,23.35,0,0,1,8.17.42,12.81,12.81,0,0,1,7.06,4.94l.63.89c.19.3.36.61.54.92a18.4,18.4,0,0,1,.95,1.88c.59,1.22,1.06,2.73,1.5,3.44,1,1.66,2.8,2.59,5.06,3.07a35.87,35.87,0,0,0,7.31.55c2.56,0,5.17-.09,7.9,0a33.21,33.21,0,0,1,4.23.38,11.54,11.54,0,0,1,8.11,4.68,34.28,34.28,0,0,1,2.44,3.47c1.43,2.33,2.66,4.64,3.93,6.86a36.5,36.5,0,0,0,4.13,6c1.55,1.71,3.27,2.84,5.2,2.84.82,0,2.37-.32,3.72-.42a18.39,18.39,0,0,1,2.11-.12h1.06l1.09.11a12.77,12.77,0,0,1,7.81,3.65,23.24,23.24,0,0,1,4.44,6.86,59.28,59.28,0,0,1,2.64,7.47c-1.24-2.32-2.47-4.63-3.86-6.81a22.65,22.65,0,0,0-4.85-5.69,10,10,0,0,0-6.41-2.21h-.87l-.9.08a16.48,16.48,0,0,0-1.8.24c-1.25.17-2.24.57-4,.74a9.51,9.51,0,0,1-4.82-1,14.21,14.21,0,0,1-3.71-2.73,36.7,36.7,0,0,1-5-6.67c-1.42-2.27-2.69-4.56-4.05-6.66a30.47,30.47,0,0,0-2.09-2.93,7,7,0,0,0-5.11-3,28.93,28.93,0,0,0-3.59-.35c-2.5-.13-5.12-.08-7.79-.18a36.58,36.58,0,0,1-8.28-1,14.09,14.09,0,0,1-4.22-1.84,9.48,9.48,0,0,1-3.23-3.7c-.75-1.63-.9-2.69-1.38-3.86a14.61,14.61,0,0,0-.69-1.67l-.38-.82-.44-.76a10,10,0,0,0-5.12-4.44,22.89,22.89,0,0,0-7.36-1.36C335.66,111,333,111.09,330.41,111.18Z"/></g></g></g></svg>