<svg xmlns="http://www.w3.org/2000/svg" xmlns:xlink="http://www.w3.org/1999/xlink" viewBox="0 0 245.26 239.23"><defs><style>.a5b51bbd-b78f-46a8-9d5b-3285606e3801{fill:url(#ae25bed5-c7ea-4822-843c-e56dbaafe49f);}.bdf63487-f02d-4be6-a283-a1419409d4b2{fill:url(#ad920e6c-f25c-42c8-9512-bac7481877d6);}.a4e60123-5a19-4af4-ba6f-ec63f0c13c5e{fill:none;stroke:#fff;stroke-miterlimit:10;}.ab314c94-d353-4690-a841-edc3d48abd5e{fill:url(#ffab6af5-27b3-4e96-a4be-ccebd0365cf6);}</style><radialGradient id="ae25bed5-c7ea-4822-843c-e56dbaafe49f" cx="138.63" cy="143.91" r="121.13" gradientUnits="userSpaceOnUse"><stop offset="0" stop-color="#1e31b2"/><stop offset="0.76" stop-color="#8cf6ca"/><stop offset="1" stop-color="#fff6d4"/></radialGradient><radialGradient id="ad920e6c-f25c-42c8-9512-bac7481877d6" cx="2192.22" cy="-5241.83" r="95.74" gradientTransform="translate(-5113.16 -2065.32) rotate(90)" xlink:href="#ae25bed5-c7ea-4822-843c-e56dbaafe49f"/><radialGradient id="ffab6af5-27b3-4e96-a4be-ccebd0365cf6" cx="-1711.53" cy="-7658.63" r="79.31" gradientTransform="matrix(-0.93, 0.38, -0.38, -0.93, -4365.43, -6306.59)" xlink:href="#ae25bed5-c7ea-4822-843c-e56dbaafe49f"/></defs><g id="aa1b1d82-f626-4659-ad87-f732915846b1" data-name="Слой 2"><g id="a6c8ca6e-8b81-49a8-bf79-01e8573acae8" data-name="Слой 1"><path class="a5b51bbd-b78f-46a8-9d5b-3285606e3801" d="M121.63,0l9,42.78A20.92,20.92,0,0,0,163.87,55l18.2-14-7.89,22.19a20.92,20.92,0,0,0,21.59,27.84l35.13-3.18-29.06,18.26a20.91,20.91,0,0,0,.33,35.62l43.09,26-47.14-7.63a20.92,20.92,0,0,0-23.05,27.66l7,19.67-19-14.63A20.92,20.92,0,0,0,130,204.48l-8.35,34.75-8.36-34.75a20.92,20.92,0,0,0-33.09-11.69l-19,14.63L68.45,187a20.91,20.91,0,0,0-22.62-27.72L0,165.71l41.94-24.78a20.92,20.92,0,0,0,1.18-35.26L23.82,92.44l25.69.72A20.92,20.92,0,0,0,69.8,65.24L61.18,41l18.2,14A20.92,20.92,0,0,0,112.6,42.78Z"/><path class="bdf63487-f02d-4be6-a283-a1419409d4b2" d="M213.73,113.08l-33.81,7.13a16.53,16.53,0,0,0-9.69,26.26l11.07,14.38-17.54-6.24a16.53,16.53,0,0,0-22,17.07l2.51,27.77-14.43-23a16.53,16.53,0,0,0-28.16.27L81.16,210.8l6-37.26a16.53,16.53,0,0,0-21.86-18.22l-15.55,5.53,11.56-15a16.53,16.53,0,0,0-9.23-26.16l-27.47-6.6,27.47-6.6a16.53,16.53,0,0,0,9.23-26.16l-11.56-15,16.16,5.75A16.53,16.53,0,0,0,87.85,53.17l-5.1-36.23,19.59,33.15a16.53,16.53,0,0,0,27.87.94l10.45-15.26-.56,20.31a16.53,16.53,0,0,0,22.06,16L181.3,65.3,170.23,79.69A16.53,16.53,0,0,0,179.92,106Z"/><line class="a4e60123-5a19-4af4-ba6f-ec63f0c13c5e" x1="112.22" y1="108.48" x2="23.18" y2="142.42"/><line class="a4e60123-5a19-4af4-ba6f-ec63f0c13c5e" x1="112.22" y1="108.48" x2="32.18" y2="160.19"/><line class="a4e60123-5a19-4af4-ba6f-ec63f0c13c5e" x1="112.22" y1="108.48" x2="44.68" y2="175.7"/><line class="a4e60123-5a19-4af4-ba6f-ec63f0c13c5e" x1="112.22" y1="108.48" x2="60.14" y2="188.28"/><line class="a4e60123-5a19-4af4-ba6f-ec63f0c13c5e" x1="112.22" y1="108.48" x2="77.87" y2="197.36"/><line class="a4e60123-5a19-4af4-ba6f-ec63f0c13c5e" x1="112.22" y1="108.48" x2="97.1" y2="202.56"/><line class="a4e60123-5a19-4af4-ba6f-ec63f0c13c5e" x1="112.22" y1="108.48" x2="186.14" y2="168.61"/><line class="a4e60123-5a19-4af4-ba6f-ec63f0c13c5e" x1="112.22" y1="108.48" x2="197.03" y2="151.93"/><line class="a4e60123-5a19-4af4-ba6f-ec63f0c13c5e" x1="112.22" y1="108.48" x2="204.21" y2="133.35"/><line class="a4e60123-5a19-4af4-ba6f-ec63f0c13c5e" x1="112.22" y1="108.48" x2="207.37" y2="113.68"/><line class="a4e60123-5a19-4af4-ba6f-ec63f0c13c5e" x1="112.22" y1="108.48" x2="206.37" y2="93.78"/><line class="a4e60123-5a19-4af4-ba6f-ec63f0c13c5e" x1="112.22" y1="108.48" x2="201.26" y2="74.53"/><path class="ab314c94-d353-4690-a841-edc3d48abd5e" d="M135.14,167.6l-12.28-18a10.43,10.43,0,0,0-17.65.64l-5.75,9.92-.56-11.74a10.44,10.44,0,0,0-15.24-8.76l-15.61,8.13,10-13.94a10.43,10.43,0,0,0-6.91-16.38l-24.8-3.81,23.2-5.42a10.43,10.43,0,0,0,5.4-17.13l-7-7.75,11.54,3.15A10.44,10.44,0,0,0,92.53,74.8L89.8,57.18l10.44,14.46a10.44,10.44,0,0,0,17.49-.88l6-10.35.51,10.81a10.44,10.44,0,0,0,15.7,8.51l19.93-11.67L145.21,87.45a10.43,10.43,0,0,0,6.14,16.5l11.41,2.44-12,4.54a10.44,10.44,0,0,0-4.07,16.73l8.56,9.55-11.06-3a10.44,10.44,0,0,0-13,11.95Z"/></g></g></svg>