<svg xmlns="http://www.w3.org/2000/svg" viewBox="0 0 336.24 180.07"><defs><style>.a8e06d69-590b-4ee6-86be-c653a738b177{fill:aqua;}</style></defs><g id="aa70fb16-d6f6-4336-921f-60f8bb77893f" data-name="Слой 2"><g id="babbea1e-111e-4130-a809-e935475a1258" data-name="Слой 1"><path class="a8e06d69-590b-4ee6-86be-c653a738b177" d="M142.33,33.71c.4-1.24.79-2.42,2.26-3a9.54,9.54,0,0,0,4.53-13.94c-.85-1.34-.46-2.52-.06-3.76,1.21-3.71,4.26-6,6.83-5.21s3.67,4.52,2.46,8.23c-.4,1.24-1.21,2.74-2.25,3h0A9.52,9.52,0,0,0,151.57,33h0c.68.82.46,2.52.06,3.76-1.21,3.71-4.27,6-6.83,5.21S141.13,37.42,142.33,33.71Z"/><path class="a8e06d69-590b-4ee6-86be-c653a738b177" d="M92.33,27.45c.26-1.28.52-2.51,1.93-3.26a9.57,9.57,0,0,0,3-14.42c-1-1.25-.73-2.47-.46-3.75.81-3.84,3.62-6.5,6.27-5.95s4.16,4.13,3.35,8c-.27,1.28-.92,2.87-1.93,3.25h0a9.59,9.59,0,0,0-3,14.42h0c.77.76.73,2.48.46,3.76-.81,3.84-3.61,6.5-6.27,5.94S91.52,31.29,92.33,27.45Z"/><path class="a8e06d69-590b-4ee6-86be-c653a738b177" d="M43.27,30.91c.14-1.32.27-2.58,1.61-3.49a9.74,9.74,0,0,0,1.54-14.91c-1.12-1.16-1-2.42-.86-3.74.41-4,3-7,5.72-6.68s4.63,3.73,4.22,7.7c-.13,1.33-.63,3-1.61,3.5h0a9.73,9.73,0,0,0-1.54,14.9h0c.86.68,1,2.43.86,3.75-.41,4-3,7-5.71,6.68S42.86,34.88,43.27,30.91Z"/><path class="a8e06d69-590b-4ee6-86be-c653a738b177" d="M6.05,23.35c1.3-.29,3.05-.36,3.83.41A9.68,9.68,0,0,0,18,25.57c.88-.2,1,.26.11.46a9.68,9.68,0,0,0-6.55,5.06c-.75,1.44-2,1.72-3.28,2C4.33,34,.69,32.49.08,29.8S2.16,24.21,6.05,23.35Z"/><path class="a8e06d69-590b-4ee6-86be-c653a738b177" d="M336.24,177.53A271.94,271.94,0,0,0,224,53.4,272.25,272.25,0,0,0,16.08,25.74l.25,1c131.5-35,266.57,32.6,319.91,153.36Z"/></g></g></svg>