<svg xmlns="http://www.w3.org/2000/svg" xmlns:xlink="http://www.w3.org/1999/xlink" viewBox="0 0 171.02 160.17"><defs><style>.bc39c322-5535-43f6-aa8c-2a997f11fb8a{fill:url(#afaca3d7-ecb1-4131-b194-d06609070237);}.fd33d068-41fe-4c89-9c8d-52a0cf93539a{fill:url(#b4b6d37a-3a37-41a0-a076-7c2cc8e1340d);}.b4752ea2-fb90-4e59-8a3d-c702f8a9002e{fill:none;stroke:#fff;stroke-miterlimit:10;}.aa198a51-2f3c-4c95-9583-e0f8496999b7{fill:url(#aeafff2b-42bb-4a3b-b332-884fc7efb9d9);}.f2d0b267-51d0-4460-b3dd-cb7aa0a0de49{fill:url(#bba63c8c-a93b-460d-aff5-db40c0ce233b);}.ffaaf464-fda0-4636-ab60-72f1e7f176b6{fill:url(#bb2221ff-2271-4a94-bdaa-b40756f39c13);}.a2b69810-9dfb-4eb5-9af8-a4f412273080{fill:url(#a37ff7f0-e4d0-47d0-9fa1-00a1964f36f9);}</style><linearGradient id="afaca3d7-ecb1-4131-b194-d06609070237" x1="-3189.74" y1="95.71" x2="-3326.18" y2="124.33" gradientTransform="translate(3268.27)" gradientUnits="userSpaceOnUse"><stop offset="0" stop-color="#d40082"/><stop offset="0.01" stop-color="#d20884"/><stop offset="0.06" stop-color="#bf4697"/><stop offset="0.11" stop-color="#b07ca6"/><stop offset="0.16" stop-color="#a3a8b3"/><stop offset="0.21" stop-color="#99cabd"/><stop offset="0.26" stop-color="#92e2c4"/><stop offset="0.3" stop-color="#8df1c9"/><stop offset="0.33" stop-color="#8cf6ca"/><stop offset="1" stop-color="#fcee9f"/></linearGradient><linearGradient id="b4b6d37a-3a37-41a0-a076-7c2cc8e1340d" x1="-3232.67" y1="70.21" x2="-3266.9" y2="-17.69" gradientTransform="translate(3146.58 932.25) rotate(16.68)" xlink:href="#afaca3d7-ecb1-4131-b194-d06609070237"/><linearGradient id="aeafff2b-42bb-4a3b-b332-884fc7efb9d9" x1="-3166" y1="94.63" x2="-3272.81" y2="75.72" xlink:href="#afaca3d7-ecb1-4131-b194-d06609070237"/><linearGradient id="bba63c8c-a93b-460d-aff5-db40c0ce233b" x1="-3189.7" y1="42.59" x2="-3139.11" y2="-65.75" gradientTransform="translate(602.79 3151.9) rotate(81.02)" xlink:href="#afaca3d7-ecb1-4131-b194-d06609070237"/><linearGradient id="bb2221ff-2271-4a94-bdaa-b40756f39c13" x1="-3118.81" y1="117.54" x2="-3209.77" y2="100.67" xlink:href="#afaca3d7-ecb1-4131-b194-d06609070237"/><linearGradient id="a37ff7f0-e4d0-47d0-9fa1-00a1964f36f9" x1="-3136.81" y1="96.8" x2="-3070.38" y2="-7.96" gradientTransform="translate(1545.7 2867.32) rotate(64.74)" xlink:href="#afaca3d7-ecb1-4131-b194-d06609070237"/></defs><g id="ac5aef56-6369-41b4-9663-c903bec40e95" data-name="Слой 2"><g id="bbb876b5-3986-4d28-bb6c-7cd93c0d9a99" data-name="Слой 1"><path class="bc39c322-5535-43f6-aa8c-2a997f11fb8a" d="M3.42,63.65c19,16.48,33.94,54.78,40.64,96.52H65.71c16.85-59-5.44-112.95-12.11-121Z"/><ellipse class="fd33d068-41fe-4c89-9c8d-52a0cf93539a" cx="28.18" cy="51.14" rx="29.11" ry="14.05" transform="translate(-13.5 10.24) rotate(-16.68)"/><path class="b4752ea2-fb90-4e59-8a3d-c702f8a9002e" d="M55.57,65c-4.23,4.48-11.35,8.66-19.94,11.23-15.4,4.62-29.69,2.33-31.91-5.1a8.25,8.25,0,0,1,.62-5.89"/><path class="b4752ea2-fb90-4e59-8a3d-c702f8a9002e" d="M65.87,83.09c-4.24,4.48-11.36,8.66-20,11.23-15.4,4.62-29.69,2.33-31.91-5.1a8.25,8.25,0,0,1,.62-5.89"/><path class="aa198a51-2f3c-4c95-9583-e0f8496999b7" d="M60.65,160.17C71,116.8,64.34,37.09,60.18,16.05L120.72,25C107.16,48.72,84.94,84.34,90.45,160.17Z"/><ellipse class="f2d0b267-51d0-4460-b3dd-cb7aa0a0de49" cx="90.96" cy="16.05" rx="15.44" ry="31.98" transform="translate(60.91 103.39) rotate(-81.02)"/><path class="ffaaf464-fda0-4636-ab60-72f1e7f176b6" d="M120.25,63.12c-10,20.07-7.16,87.29-5.15,97h21.3c-.34-31.59,7.15-59.67,29.4-69.47Z"/><ellipse class="a2b69810-9dfb-4eb5-9af8-a4f412273080" cx="145.31" cy="74.94" rx="13.37" ry="27.71" transform="translate(15.53 174.38) rotate(-64.74)"/><path class="b4752ea2-fb90-4e59-8a3d-c702f8a9002e" d="M140.24,99.47a53.11,53.11,0,0,1-12.2-4.1c-13.84-6.53-22.5-17.23-19.35-23.91,1.18-2.51,3.86-4.09,7.47-4.75"/><path class="b4752ea2-fb90-4e59-8a3d-c702f8a9002e" d="M138.19,115.52a45.16,45.16,0,0,1-11-1.55c-12.82-3.36-21.89-11.1-20.27-17.29.61-2.32,2.64-4.09,5.61-5.22"/></g></g></svg>