<svg xmlns="http://www.w3.org/2000/svg" xmlns:xlink="http://www.w3.org/1999/xlink" viewBox="0 0 134.29 197.11"><defs><style>.aac0264e-83a9-4114-969e-2ee2bed42a63{fill:url(#e5e50d0f-5be2-4165-98ec-d74c7c3277cc);}.bac0298a-68c1-4d96-abe6-2ce119375457{fill:url(#ba98c1e2-13e4-4e82-878c-021ddce03849);}.edc4b93c-ac33-4911-afda-2969b5bc6535{fill:none;stroke:#fff;stroke-miterlimit:10;}.a56863ee-08c7-4986-a1cb-51ed5324870a{fill:url(#bc26308c-fef9-4b4d-b606-4638fe11b9c5);}.fd392964-7b72-4c63-a477-9587b286b5e7{fill:url(#b88863ea-994b-4c98-bffd-1d0b277faf7e);}</style><linearGradient id="e5e50d0f-5be2-4165-98ec-d74c7c3277cc" x1="-3158.01" y1="106.54" x2="-3269.36" y2="106.54" gradientTransform="matrix(-1, 0, 0, 1, -3128.97, 0)" gradientUnits="userSpaceOnUse"><stop offset="0" stop-color="aqua"/><stop offset="1" stop-color="#00123f"/></linearGradient><linearGradient id="ba98c1e2-13e4-4e82-878c-021ddce03849" x1="-3201.82" y1="-30.71" x2="-3184.62" y2="47.6" gradientTransform="matrix(-0.16, -0.99, -0.99, 0.16, -415.37, -3133.07)" xlink:href="#e5e50d0f-5be2-4165-98ec-d74c7c3277cc"/><linearGradient id="bc26308c-fef9-4b4d-b606-4638fe11b9c5" x1="-3191.28" y1="134.08" x2="-3288.19" y2="134.08" xlink:href="#e5e50d0f-5be2-4165-98ec-d74c7c3277cc"/><linearGradient id="b88863ea-994b-4c98-bffd-1d0b277faf7e" x1="-3235.83" y1="60.25" x2="-3218.64" y2="113.73" gradientTransform="matrix(-0.32, -0.95, -0.95, 0.32, -853.83, -2999.19)" xlink:href="#e5e50d0f-5be2-4165-98ec-d74c7c3277cc"/></defs><g id="b7aa74d0-a874-47b7-80dc-d6af3e1b1349" data-name="Слой 2"><g id="f332b5e2-2db4-4db0-8cfa-4b5ccdcd51ea" data-name="Слой 1"><path class="aac0264e-83a9-4114-969e-2ee2bed42a63" d="M107.11,28.76C96.81,56.49,77,197.11,77,197.11H31C.11,125.3,15.38,16,15.38,16Z"/><ellipse class="bac0298a-68c1-4d96-abe6-2ce119375457" cx="61.38" cy="21.53" rx="20.53" ry="46.3" transform="translate(30.53 78.79) rotate(-81.02)"/><path class="edc4b93c-ac33-4911-afda-2969b5bc6535" d="M16.64,20.18C11.2,22.64,7.7,26.08,7,30.28c-1.77,11.2,17.27,23.51,42.53,27.5A101.1,101.1,0,0,0,61.38,59"/><path class="edc4b93c-ac33-4911-afda-2969b5bc6535" d="M10.22,45.82c-5.45,2.46-8.94,5.9-9.61,10.1-1.77,11.2,17.28,23.51,42.53,27.51A103.68,103.68,0,0,0,55,84.6"/><path class="a56863ee-08c7-4986-a1cb-51ed5324870a" d="M129.73,103.15c-22.08,16.87-11.75,94-11.75,94H77C43.59,144.71,56.12,88.46,63.51,74S129.73,103.15,129.73,103.15Z"/><ellipse class="fd392964-7b72-4c63-a477-9587b286b5e7" cx="98.62" cy="85.87" rx="19.54" ry="37.06" transform="translate(-14.31 151.79) rotate(-71.32)"/><path class="edc4b93c-ac33-4911-afda-2969b5bc6535" d="M66.82,158.34c4,5.08,14.34,9.84,27,11.84,16.88,2.67,31.42-.58,32.48-7.26.52-3.33-2.41-6.89-7.57-9.95"/><path class="edc4b93c-ac33-4911-afda-2969b5bc6535" d="M74.23,176.71c3.45,4.42,12.5,8.57,23.54,10.32,14.72,2.32,27.39-.51,28.31-6.34.46-2.9-2.09-6-6.59-8.67"/></g></g></svg>