<svg xmlns="http://www.w3.org/2000/svg" xmlns:xlink="http://www.w3.org/1999/xlink" viewBox="0 0 48.35 379.68"><defs><style>.a0cfa194-bbbe-4edc-aeca-25cc3a1f809b{fill:url(#a8dc8fed-3ace-4399-9caa-76e2eea0a765);}.b0ca794d-b8e5-4e14-9e76-c4ff0e3d5197{fill:url(#bbc78b34-3be8-451b-9f12-107d1d808dbb);}.aae822c2-22d6-4786-b97d-77da570f3940{fill:url(#bf837b6d-668e-4dc6-b81a-1d1ab4a64b7f);}</style><linearGradient id="a8dc8fed-3ace-4399-9caa-76e2eea0a765" x1="1066.69" y1="76.92" x2="1076.98" y2="158.06" gradientTransform="matrix(-1, 0, 0, 1, 1098.15, 0)" gradientUnits="userSpaceOnUse"><stop offset="0" stop-color="#4c9fe6"/><stop offset="0.88" stop-color="#0d3f3d"/><stop offset="1" stop-color="#043125"/></linearGradient><linearGradient id="bbc78b34-3be8-451b-9f12-107d1d808dbb" x1="1079.64" y1="-13.21" x2="1055.64" y2="74.79" xlink:href="#a8dc8fed-3ace-4399-9caa-76e2eea0a765"/><linearGradient id="bf837b6d-668e-4dc6-b81a-1d1ab4a64b7f" x1="1077.16" y1="144.65" x2="1073.73" y2="384.65" xlink:href="#a8dc8fed-3ace-4399-9caa-76e2eea0a765"/></defs><g id="ee48be31-db44-4ca9-a2cf-0f328a32e30b" data-name="Слой 2"><g id="a67e1f28-3ef3-4f2c-8245-e62f4267caf7" data-name="Слой 1"><path class="a0cfa194-bbbe-4edc-aeca-25cc3a1f809b" d="M22.17,107.43A204.6,204.6,0,0,0,37.31,75.54a100.5,100.5,0,0,1-.88,30.75c-5,25.5-11.67,36.16-17.74,45.91C15,135.72,14.5,120.65,22.17,107.43Z"/><path class="b0ca794d-b8e5-4e14-9e76-c4ff0e3d5197" d="M37.31,75.54C32.72,35.61,9.09,0,9.09,0,49.48,8.12,49.37,42.48,37.31,75.54Z"/><path class="aae822c2-22d6-4786-b97d-77da570f3940" d="M14,274.29c2.11-56.58-20.33-81.9,4.69-122.09-2.58,49.51,25.85,69.16,19.14,108.37C27.67,320,26.24,353.79,48.35,379.68H6.29C-10.88,349.14,12.38,317.69,14,274.29Z"/></g></g></svg>