<svg xmlns="http://www.w3.org/2000/svg" xmlns:xlink="http://www.w3.org/1999/xlink" viewBox="0 0 108.43 110.81"><defs><style>.a6b55f05-1923-44e5-9694-07693b27df69{fill:url(#b2769b60-11bf-4635-a894-a21d1034413c);}.bb8d6e32-0923-4541-821d-56d5fdc3be99{fill:url(#b97f60b9-d704-4124-bacc-5312deb7916f);}.e6e68d55-5da8-4c59-8ba4-56fe25e1358a{fill:none;stroke:#fff;stroke-miterlimit:10;}</style><linearGradient id="b2769b60-11bf-4635-a894-a21d1034413c" x1="479.91" y1="-304.83" x2="620.45" y2="-400.71" gradientTransform="translate(-559.82 274.39) rotate(13.42)" gradientUnits="userSpaceOnUse"><stop offset="0" stop-color="#d40082"/><stop offset="0.02" stop-color="#d20884"/><stop offset="0.18" stop-color="#bf4697"/><stop offset="0.33" stop-color="#b07ca6"/><stop offset="0.49" stop-color="#a3a8b3"/><stop offset="0.63" stop-color="#99cabd"/><stop offset="0.77" stop-color="#92e2c4"/><stop offset="0.9" stop-color="#8df1c9"/><stop offset="1" stop-color="#8cf6ca"/></linearGradient><linearGradient id="b97f60b9-d704-4124-bacc-5312deb7916f" x1="487.46" y1="-358.45" x2="579.35" y2="-358.45" xlink:href="#b2769b60-11bf-4635-a894-a21d1034413c"/></defs><g id="f3136ae7-5974-4986-8fb0-f1c4fe4cf64d" data-name="Слой 2"><g id="f61d2e0e-58a9-4c62-a3bd-bbff9e7ab16b" data-name="Слой 1"><path class="a6b55f05-1923-44e5-9694-07693b27df69" d="M104.83,45.93c-9.49-5-19.65-7.28-30.07-8.45a4.41,4.41,0,0,1-4.12-3.86c-.94-9.59-1.92-19-2.78-29a5.11,5.11,0,0,0-9.53-2c-5.46,9.32-11,19.17-16.6,28.87A6,6,0,0,1,36,34.54c-10.38-1.3-20.5-3.69-30-8.87C1.47,23.14-1.8,27.89,1.1,33.18a131.66,131.66,0,0,0,19.72,26.7,4.6,4.6,0,0,1,.56,5.72C16,74.18,10.7,82,5.55,89.5c-2.48,3.61,2.05,8.08,6.53,6.59a202.12,202.12,0,0,0,28.68-12,5.18,5.18,0,0,1,6.07.7,205.83,205.83,0,0,1,20.09,24c3.11,4.27,9.47,1.05,9.19-4.56-.57-11.74-1.24-23.08-2.08-33.7a5.63,5.63,0,0,1,3.24-5.5c9.77-4.53,19.22-7.66,28.15-8.65C109.67,56.09,109.37,48.39,104.83,45.93Z"/><path class="bb8d6e32-0923-4541-821d-56d5fdc3be99" d="M66.92,108.85a205.83,205.83,0,0,0-20.09-24c-8.59-8.67-17.51-15.91-26-24.93A131.66,131.66,0,0,1,1.1,33.18c-2.91-5.29.37-10,4.89-7.51,9.46,5.18,19.58,7.57,30,8.87a6,6,0,0,0,5.78-3.07c5.55-9.7,11.14-19.55,16.59-28.87a5.12,5.12,0,0,1,9.54,2c.86,10,1.84,19.41,2.78,29a1.23,1.23,0,0,1,0,.19C71.91,45.52,73.1,57.53,74,70.59c.84,10.62,1.51,22,2.08,33.7C76.39,109.89,70,113.12,66.92,108.85Z"/><path class="e6e68d55-5da8-4c59-8ba4-56fe25e1358a" d="M39.45,73.68,23,80.52,35.49,60.08a2,2,0,0,0-.18-2.3L19.73,39.59,43,45.15a2,2,0,0,0,2.13-.89L57.65,23.82,59.56,47.7a2,2,0,0,0,1.5,1.75l5.52,1.32"/></g></g></svg>