<?xml version="1.0" encoding="utf-8"?><svg xmlns="http://www.w3.org/2000/svg" xmlns:xlink="http://www.w3.org/1999/xlink" viewBox="0 0 494.13 284.89" width="494.13" height="284.89"><defs><linearGradient id="acБезымянный_градиент_643" x1="-910.85" y1="123.01" x2="-737.27" y2="123.01" gradientTransform="matrix(1.42 0 0 1.16 1290.4 -20.51)" gradientUnits="userSpaceOnUse"><stop offset="0" stop-color="#4c9fe6"/><stop offset=".88" stop-color="#0d3f3d"/><stop offset="1" stop-color="#043125"/></linearGradient><linearGradient id="acБезымянный_градиент_643-2" x1="102.89" y1="-23.46" x2="246.77" y2="171.81" xlink:href="#acБезымянный_градиент_643"/><linearGradient id="acБезымянный_градиент_661" x1="122.99" y1="50.4" x2="224.29" y2="187.89" gradientUnits="userSpaceOnUse"><stop offset="0" stop-color="#275e82"/><stop offset="1" stop-color="#042225"/></linearGradient><linearGradient id="acБезымянный_градиент_381" x1="361.32" y1="162.31" x2="320.21" y2="-112.62" gradientUnits="userSpaceOnUse"><stop offset="0" stop-color="#d40082"/><stop offset=".01" stop-color="#d20884"/><stop offset=".06" stop-color="#bf4697"/><stop offset=".11" stop-color="#b07ca6"/><stop offset=".16" stop-color="#a3a8b3"/><stop offset=".21" stop-color="#99cabd"/><stop offset=".26" stop-color="#92e2c4"/><stop offset=".3" stop-color="#8df1c9"/><stop offset=".33" stop-color="#8cf6ca"/><stop offset="1" stop-color="#fcee9f"/></linearGradient><linearGradient id="acБезымянный_градиент_381-2" x1="265.07" y1="267.79" x2="530" y2="51.96" xlink:href="#acБезымянный_градиент_381"/><style>.accls-1{fill:url(#acБезымянный_градиент_643)}.accls-2{fill:url(#acБезымянный_градиент_643-2)}.accls-3{fill:url(#acБезымянный_градиент_661)}.accls-4,.accls-7{fill:none;stroke-miterlimit:10}.accls-4{stroke:#0ff}.accls-5{opacity:.53;fill:url(#acБезымянный_градиент_381)}.accls-6{fill:url(#acБезымянный_градиент_381-2)}.accls-7{stroke:#090e16}.accls-8{fill:#090e16}</style></defs><g id="acСлой_2" data-name="Слой 2"><g id="acСлой_1-2" data-name="Слой 1"><g id="acfish"><g id="acfish__animation-1"><path id="acfish__7" class="accls-1" d="M123 71.94c-67.95 0-123 45.12-123 100.78h245.9c0-55.66-55.04-100.78-122.9-100.78z"/><path id="acfish__6" class="accls-2" d="M247 172.72A172.62 172.62 0 0174.23 0h94.6a77.54 77.54 0 0177.54 77.07z"/><path id="acfish__5" class="accls-3" d="M123 71.94a148.78 148.78 0 00-31.56 3.36 172.59 172.59 0 00154.46 97.39c-.01-55.64-55.05-100.75-122.9-100.75z"/><path class="accls-4" d="M246.95 172.72l-38.65-51.1M162.25 132.97l84.7 39.75M116.19 144.33l130.76 28.39M70.13 155.68l176.82 17.04M24.07 167.04l222.88 5.68"/></g><path id="acfish__amimation-2" class="accls-5" d="M415.1 172.43c-19.09-29-52.57-44.91-104.49-44v44.25z"/><g id="acfish__1"><path id="acfish__9" class="accls-6" d="M241.78 170.55c-5.75 34.35 1.7 66.71 23.73 88.73 43.54 43.54 127.45 30.23 187.42-29.74a200.74 200.74 0 0041.2-59z"/><path id="acfish__8" class="accls-7" d="M383.66 172.72c-5.75 34.35 1.71 66.71 23.73 88.73"/><path id="acfish__3" class="accls-8" d="M444.79 183.85a11.42 11.42 0 0011.42-11.42h-22.84a11.42 11.42 0 0011.42 11.42z"/><path class="accls-7" d="M407.39 261.45l-75.67-33.73M407.39 261.45l-70.82-21.57M407.39 261.45l-65.96-9.41M407.39 261.45l-61.1 2.74M407.39 261.45l-56.24 14.9"/></g></g></g></g></svg>