<?xml version="1.0" encoding="utf-8"?><svg xmlns="http://www.w3.org/2000/svg" xmlns:xlink="http://www.w3.org/1999/xlink" viewBox="0 0 169.94 151.12" width="169.94" height="151.12"><defs><linearGradient id="ahb6d6b31e-19ca-4b98-9ef2-d1fa18c0de06" x1="85.51" y1="71.06" x2="82.63" y2="-97.44" gradientUnits="userSpaceOnUse"><stop offset="0" stop-color="#d40082"/><stop offset=".01" stop-color="#d20884"/><stop offset=".06" stop-color="#bf4697"/><stop offset=".11" stop-color="#b07ca6"/><stop offset=".16" stop-color="#a3a8b3"/><stop offset=".21" stop-color="#99cabd"/><stop offset=".26" stop-color="#92e2c4"/><stop offset=".3" stop-color="#8df1c9"/><stop offset=".33" stop-color="#8cf6ca"/><stop offset="1" stop-color="#fcee9f"/></linearGradient><linearGradient id="ahac151cec-7732-4e4e-b775-bc9f1f6de509" x1="72.57" y1="77.05" x2="-10.25" y2="77.05" xlink:href="#ahb6d6b31e-19ca-4b98-9ef2-d1fa18c0de06"/><linearGradient id="aha1b40ab7-4a23-4da1-b4da-aa294b0e4c35" x1="-1.08" y1="58.08" x2="172.46" y2="130.8" xlink:href="#ahb6d6b31e-19ca-4b98-9ef2-d1fa18c0de06"/><style>.ahf2957532-8c80-42d8-9e34-83f63902fb6a{fill:url(#ahb6d6b31e-19ca-4b98-9ef2-d1fa18c0de06)}.ahbd22a160-c45f-4f77-9083-77b4ff62ca9f{fill:url(#ahac151cec-7732-4e4e-b775-bc9f1f6de509)}.ahf9780b89-c9c8-4f29-90ad-c0bbf8c0af71{fill:url(#aha1b40ab7-4a23-4da1-b4da-aa294b0e4c35)}.ahe5d03423-7852-4ec7-8918-a9e7048c473b{fill:#090e16}</style></defs><g id="ahb83b90e1-897e-4c1d-b6a7-8fc78b14a117" data-name="Слой 2"><g id="ahbd7875c5-97d9-4a9e-b76d-dcf7589bdc72" data-name="Слой 1"><path class="ahf2957532-8c80-42d8-9e34-83f63902fb6a" d="M169.94 79.21c0-27.9-83.92-28.94-89.67-44.28C80.26 15.84 60.49 9 0 0c47.61.45 95.35 7.8 135.37 31.29 14.35 8.89 28.46 21 33.2 37.82a38.31 38.31 0 011.37 10.1z"/><path id="ahbcc06c28-42cd-44bb-9f3b-f6556c8fcb56" data-name="fishTree-2__tail" class="ahbd22a160-c45f-4f77-9083-77b4ff62ca9f" d="M47.52 44.29c7.92 8.64 9.36 25.56 9.36 32.76s-1.44 24.12-9.36 32.76c24.85-10.44 41.77-32.76 41.77-32.76S72.37 54.73 47.52 44.29z"/><path class="ahf9780b89-c9c8-4f29-90ad-c0bbf8c0af71" d="M104.89 44.89c-12.6-3.34-24.56-5.67-24.63-9.89v.08c-.21 7.78-2.69 14.74-5 22.54a86.75 86.75 0 00-3.74 19.46c0 .71-.08 1.43-.1 2.15 0 .73.06 1.44.1 2.15 1.7 27.44 18.84 39.17-.13 69.76 29.81-6.44 54.93-16.79 72.35-29.63 16.57-12.23 26.17-26.73 26.17-42.28.03-18.84-38.47-27.31-65.02-34.34z"/><circle class="ahe5d03423-7852-4ec7-8918-a9e7048c473b" cx="146.48" cy="71.63" r="5.42"/></g></g></svg>