<?xml version="1.0" encoding="utf-8"?><svg xmlns="http://www.w3.org/2000/svg" xmlns:xlink="http://www.w3.org/1999/xlink" viewBox="0 0 408.56 242.82" width="408.56" height="242.82"><defs><linearGradient id="adf534c4a5-2964-41ae-9d4b-a5f816a56e31" x1="-5092.03" y1="-7617.73" x2="-5027.96" y2="-7799.93" gradientTransform="rotate(180 -2389.47 -3774.605)" gradientUnits="userSpaceOnUse"><stop offset="0" stop-color="#86c2e6"/><stop offset="1" stop-color="#043163"/></linearGradient><linearGradient id="ada5ca95a4-a0e2-47be-8cd9-392316ccf0ec" x1="-1026.29" y1="195.19" x2="-874.14" y2="195.19" gradientTransform="translate(1026.29)" gradientUnits="userSpaceOnUse"><stop offset="0" stop-color="#d40082"/><stop offset=".02" stop-color="#d20884"/><stop offset=".18" stop-color="#bf4697"/><stop offset=".33" stop-color="#b07ca6"/><stop offset=".49" stop-color="#a3a8b3"/><stop offset=".63" stop-color="#99cabd"/><stop offset=".77" stop-color="#92e2c4"/><stop offset=".9" stop-color="#8df1c9"/><stop offset="1" stop-color="#8cf6ca"/></linearGradient><linearGradient id="adf557ff87-4fad-444f-b3ca-77d85d85f336" x1="-1026.29" y1="103.85" x2="-874.14" y2="103.85" xlink:href="#ada5ca95a4-a0e2-47be-8cd9-392316ccf0ec"/><linearGradient id="adf5d0e8ff-0d2f-45b4-a689-bd2fe8f888cc" x1="-959.95" y1="179.92" x2="-874.14" y2="179.92" xlink:href="#ada5ca95a4-a0e2-47be-8cd9-392316ccf0ec"/><linearGradient id="adeda188de-d7ca-421b-b515-7a2a6b926c93" x1="-767.16" y1="190.27" x2="-742.69" y2="120.66" xlink:href="#ada5ca95a4-a0e2-47be-8cd9-392316ccf0ec"/><style>.adb12a269f-6936-4d3a-aef6-6a736dd96d19{fill:url(#adf534c4a5-2964-41ae-9d4b-a5f816a56e31)}.ada3e6330d-648e-4798-bc2a-54679b6f1e72{fill:none;stroke:#fff;stroke-miterlimit:10}.ada3627c91-16fc-4812-9d0c-6f99e2c0b6d4{fill:url(#ada5ca95a4-a0e2-47be-8cd9-392316ccf0ec)}.ada6579689-15d9-4a0d-adbb-332dcc039f4e{fill:url(#adf557ff87-4fad-444f-b3ca-77d85d85f336)}.adafd5bf7d-5730-4c88-b7e1-abab60588612{fill:url(#adf5d0e8ff-0d2f-45b4-a689-bd2fe8f888cc)}.ada07a7bf6-a509-46b5-99d6-8d0f6fba0c0b{fill:url(#adeda188de-d7ca-421b-b515-7a2a6b926c93)}.adba276892-4c3f-4b03-8b3c-4ec30f9d7cc2{fill:#090e16}</style></defs><g id="ade1a9bc68-b1b5-4183-bf9b-87253aad67f4" data-name="Слой 2"><g id="adac5ab606-3691-4f3d-b2e2-0e78805b202f" data-name="Слой 1"><path class="adb12a269f-6936-4d3a-aef6-6a736dd96d19" d="M152.14 152.14c12.36 35.18 54.34 67 108.85 78.29 71.19 14.77 136.73-11 146.39-57.55a58.32 58.32 0 00.47-20.74z"/><path class="ada3e6330d-648e-4798-bc2a-54679b6f1e72" d="M348.59 152.14A59.88 59.88 0 00375 201.88M375.01 201.88v40.94M375.01 201.88l-10.59 39.55M375.01 201.88l-20.47 35.46M375.01 201.88l-28.95 28.95M375.01 201.88l-35.46 20.47M375.01 201.88l-39.55 10.6M375.01 201.88h-40.94"/><path id="adbcb4a3b8-4b47-4e4a-ba5c-dd386668d003" data-name="fishFour__tail-1" class="ada3627c91-16fc-4812-9d0c-6f99e2c0b6d4" d="M66.05 238.24a86 86 0 0086.09-86.1H1.21c-8.51 34.54 30 30 49.05 48.05s15.79 38.05 15.79 38.05z"/><path id="ada5f17b01-4652-4eb6-8473-51483c2ff2d5" data-name="fishFour__tail-1" class="ada6579689-15d9-4a0d-adbb-332dcc039f4e" d="M152.14 152.14A152.06 152.06 0 000 0c0 33.51 10.22 51.53 35.25 66.55s35 36.54 24 58.06 14 32.54 32 44.05 8 39 8 39c20.59-1.46 52.89-22.98 52.89-55.52z"/><path id="adbc1f08e8-2cca-479e-bf23-4f6fb8fe92ba" data-name="fishFour__tail-1" class="adafd5bf7d-5730-4c88-b7e1-abab60588612" d="M91.31 168.66c18 11.51 8 39 8 39 20.52-1.5 52.82-23 52.82-55.56H66.34c7.05 6.14 16.73 11.3 24.97 16.56z"/><path class="ada07a7bf6-a509-46b5-99d6-8d0f6fba0c0b" d="M348.59 152.14L211.44 109.6c-.5 23.52 11 43.24 38 58.06z"/><circle class="adba276892-4c3f-4b03-8b3c-4ec30f9d7cc2" cx="382.12" cy="167.66" r="5.01"/></g></g></svg>