<?xml version="1.0" encoding="utf-8"?><svg xmlns="http://www.w3.org/2000/svg" xmlns:xlink="http://www.w3.org/1999/xlink" viewBox="0 0 419.78 373.29" width="419.78" height="373.29"><defs><linearGradient id="aga559ce9a-6a55-4095-bdb9-b827baa11d61" y1="97.83" x2="419.78" y2="97.83" gradientUnits="userSpaceOnUse"><stop offset="0" stop-color="#0ff"/><stop offset="1" stop-color="#00123f"/></linearGradient><linearGradient id="agf2222d73-3dbb-4fb9-aa73-af15bd45599d" x1="117.39" y1="190.33" x2="220.56" y2="190.33" gradientUnits="userSpaceOnUse"><stop offset="0" stop-color="#4c9fe6"/><stop offset=".88" stop-color="#0d3f3d"/><stop offset="1" stop-color="#043125"/></linearGradient><linearGradient id="aga76edace-b581-4f9e-b996-50922dbdf527" x1="173.42" y1="225.46" x2="329.5" y2="346.86" xlink:href="#aga559ce9a-6a55-4095-bdb9-b827baa11d61"/><linearGradient id="agbff3ee36-5d57-42e4-84f8-6ffeec0bcf5d" x1="149.22" y1="81.07" x2="401.36" y2="246.49" xlink:href="#aga559ce9a-6a55-4095-bdb9-b827baa11d61"/><style>.agb7dc277f-43cb-4543-9ca5-c87072dd48dd{fill:url(#aga559ce9a-6a55-4095-bdb9-b827baa11d61)}.aga3af69db-17bb-4a06-8c74-a006434f436f{fill:url(#agf2222d73-3dbb-4fb9-aa73-af15bd45599d)}.agbf6a0cfc-4d9b-401f-afba-e26d57f87089{fill:url(#aga76edace-b581-4f9e-b996-50922dbdf527)}.agaa857a94-fbb6-435b-90cb-431db48483f6{fill:url(#agbff3ee36-5d57-42e4-84f8-6ffeec0bcf5d)}.agbe84b0ff-1d3f-4c4f-93a6-67e4ccfcb819{fill:#090e16}.agbf3fe923-00ac-4f8a-bfc4-9e365a2b0d21{fill:none;stroke:#090e16;stroke-miterlimit:10}</style></defs><g id="agbd635258-7139-434d-a938-f41a6ad7a09a" data-name="Слой 2"><g id="agfe0d390a-60a1-416c-9b1f-a1d903a14a42" data-name="Слой 1"><path class="agb7dc277f-43cb-4543-9ca5-c87072dd48dd" d="M419.78 195.66c-.1-68.92-207.29-71.48-221.51-109.39C198.26 39.14 149.41 22.24 0 0c117.61 1.12 235.52 19.26 334.39 77.3 35.45 22 70.31 51.91 82 93.42a94.62 94.62 0 013.39 24.94z"/><path id="agf39c3a6a-f003-48c1-a052-fe631f59103e" data-name="fishTree-1__tail" class="aga3af69db-17bb-4a06-8c74-a006434f436f" d="M117.39 109.4c19.57 21.34 23.12 63.14 23.12 80.93s-3.55 59.58-23.12 80.93c61.37-25.79 103.17-80.93 103.17-80.93s-41.8-55.14-103.17-80.93z"/><path class="agbf6a0cfc-4d9b-401f-afba-e26d57f87089" d="M354 220.57c-38.4-25.57-181-26.23-168-78.3-4.18 14.32-8.1 29.78-9.23 48.07-.12 1.75-.2 3.51-.26 5.31.06 1.8.14 3.57.26 5.32 4.2 67.76 46.53 96.75-.34 172.31 73.65-15.91 135.71-41.46 178.72-73.2 17.79-14.56 32.1-57.32-1.15-79.51z"/><path class="agaa857a94-fbb6-435b-90cb-431db48483f6" d="M419.78 195.66c0-46.48-95.11-67.4-160.68-84.78-31.14-8.25-60.66-14-60.84-24.49v.19c-.52 19.21-6.65 36.41-12.28 55.69C173 194.34 315.6 195 354 220.57c33.29 22.19 19 64.95 1.17 79.52 40.91-30.21 64.61-66.02 64.61-104.43z"/><circle class="agbe84b0ff-1d3f-4c4f-93a6-67e4ccfcb819" cx="371.8" cy="164.28" r="5.1"/><path class="agbf3fe923-00ac-4f8a-bfc4-9e365a2b0d21" d="M359.94 256.86c-21.25-18.21-38-44.93-45.93-76.8-7.64-30.87-5.66-61.36 3.83-86.9M339 234.88c-15.92 15.48-49.33 26.82-73.05 26.62M339 234.88c-14.46 17-44.46 34.12-72.77 42.74M339 234.88c-12.7 18.26-38.06 39.43-67.16 55.94M339 234.88c-10.63 19.13-30.51 42.45-56.26 64.76M339 234.88c-8.29 19.65-22.15 43-40.93 67.78"/></g></g></svg>