<?xml version="1.0" encoding="utf-8"?><svg xmlns="http://www.w3.org/2000/svg" xmlns:xlink="http://www.w3.org/1999/xlink" viewBox="0 0 384.3 158.22" width="384.3" height="158.22"><defs><linearGradient id="ajf2605d09-8124-46d4-a6d4-4d73356c5f4f" y1="83.37" x2="198.46" y2="83.37" gradientTransform="rotate(-45 99.235 83.375)" gradientUnits="userSpaceOnUse"><stop offset="0" stop-color="#8cf6ca"/><stop offset="1" stop-color="#7486ff"/></linearGradient><linearGradient id="ajfb6dabb2-50ce-4637-9e96-a10a7e3e2564" x1="387.13" y1="47.07" x2="195.62" y2="47.07" gradientUnits="userSpaceOnUse"><stop offset="0" stop-color="#86c2e6"/><stop offset="1" stop-color="#043163"/></linearGradient><linearGradient id="ajb3b239fd-8e5f-46a4-b227-6d116c83ad22" x1="253.16" y1="138.08" x2="253.16" y2="32.29" xlink:href="#ajfb6dabb2-50ce-4637-9e96-a10a7e3e2564"/><linearGradient id="ajafb2ce62-9ec3-4e5c-9288-35aa06c60da5" x1="198.46" y1="57.83" x2="307.87" y2="57.83" gradientUnits="userSpaceOnUse"><stop offset="0" stop-color="#275e82"/><stop offset="1" stop-color="#042225"/></linearGradient><linearGradient id="aja7a1a5d4-8503-4173-a384-5d10a8135199" x1="72.52" y1="83.37" x2="198.46" y2="83.37" xlink:href="#ajafb2ce62-9ec3-4e5c-9288-35aa06c60da5"/><style>.ajbd6c9493-19ae-4c4a-b87f-c616dd31ae51{fill:url(#ajf2605d09-8124-46d4-a6d4-4d73356c5f4f)}.ajfaaebd21-b0c2-4772-be38-e88edccb043c{fill:url(#ajfb6dabb2-50ce-4637-9e96-a10a7e3e2564)}.ajb780cd47-2dc7-477a-8515-46495f638dd7{fill:url(#ajb3b239fd-8e5f-46a4-b227-6d116c83ad22)}.ajf5ca3315-5538-4a37-9ae8-f73cc787066b{fill:none;stroke:#fff;stroke-miterlimit:10}.ajf7014c25-7b35-4f0b-9bc9-74576ff54afd{fill:url(#ajafb2ce62-9ec3-4e5c-9288-35aa06c60da5)}.ajbae08768-b471-45ae-a900-06d35bade520{opacity:.28;fill:url(#aja7a1a5d4-8503-4173-a384-5d10a8135199)}.aja0acdb22-95a1-480a-a21e-9470dfa7ef23{fill:#090e16}</style></defs><g id="ajaa65563f-e5aa-4115-8e55-da894167158c" data-name="Слой 2"><g id="ajac074534-d83c-4f47-a6b2-ec5958d9f612" data-name="Слой 1"><path class="ajbd6c9493-19ae-4c4a-b87f-c616dd31ae51" d="M96.54 13.21h72.86v72.85a67.48 67.48 0 01-67.48 67.48H29.06V80.69a67.48 67.48 0 0167.48-67.48z" transform="rotate(45 99.235 83.375)"/><path id="ajaa66adaf-7b4a-415e-89ab-015a3960f58a" data-name="fish__tail" class="ajfaaebd21-b0c2-4772-be38-e88edccb043c" d="M384.3 83.37a95.76 95.76 0 00-185.84 0z"/><path id="ajabce9c2c-f22c-45f7-94d9-6dddbee0a31e" data-name="fish__tail" class="ajb780cd47-2dc7-477a-8515-46495f638dd7" d="M307.87 83.38a54.73 54.73 0 01-54.67 54.7 54.69 54.69 0 00-54.7-54.7 73.44 73.44 0 0125.34-39.58C256 18 304.49 38 307.7 79.06c.05.57.08 1.14.11 1.72.04.87.06 1.74.06 2.6z"/><path class="ajf5ca3315-5538-4a37-9ae8-f73cc787066b" d="M42.56 20.25a76.06 76.06 0 0133.57 63.12 75.94 75.94 0 01-6 29.64"/><path id="ajb7ebed2c-4245-49d4-aeef-9381abefc235" data-name="fish__tail" class="ajf7014c25-7b35-4f0b-9bc9-74576ff54afd" d="M198.46 83.37h109.41c0-.86 0-1.72-.06-2.59 0-.58-.06-1.15-.11-1.72C304.49 38 256 18 223.84 43.8a73.45 73.45 0 00-25.38 39.57z"/><path class="ajf5ca3315-5538-4a37-9ae8-f73cc787066b" d="M82.49 47.07a89.89 89.89 0 017.61 36.3 90 90 0 01-39.31 74.44"/><path class="ajbae08768-b471-45ae-a900-06d35bade520" d="M147 31.86a67.5 67.5 0 00-74.48-14.25c34.13 0 61.74 29.43 61.74 65.76s-27.61 65.75-61.74 65.77A67.5 67.5 0 00147 134.89l51.51-51.52z"/><path class="ajf5ca3315-5538-4a37-9ae8-f73cc787066b" d="M198.46 83.37A82.83 82.83 0 01281.33.5M198.46 84c4.51-9.82 16.11-18.58 32.29-25.38 39.77-16.74 101.67-14.28 124.17 1.26"/><circle class="aja0acdb22-95a1-480a-a21e-9470dfa7ef23" cx="33.3" cy="70.91" r="5.5"/><path class="ajf5ca3315-5538-4a37-9ae8-f73cc787066b" d="M198.46 83.91a46 46 0 0126-13.65c25.44-4.06 45.63 21.79 34.67 45.1-.15.32-.31.64-.47 1-.25.49-.51 1-.77 1.43a34.22 34.22 0 01-46.63 12.83"/></g></g></svg>