<?xml version="1.0" encoding="utf-8"?><svg xmlns="http://www.w3.org/2000/svg" xmlns:xlink="http://www.w3.org/1999/xlink" viewBox="0 0 412.73 237.87" width="412.73" height="237.87"><defs><linearGradient id="anbe7ce51b-58fc-4651-a1f4-2fed142213e7" x1="906.27" y1="18.3" x2="906.27" y2="91.49" gradientTransform="translate(-782.24)" gradientUnits="userSpaceOnUse"><stop offset="0" stop-color="#d40082"/><stop offset=".02" stop-color="#d20884"/><stop offset=".18" stop-color="#bf4697"/><stop offset=".33" stop-color="#b07ca6"/><stop offset=".49" stop-color="#a3a8b3"/><stop offset=".63" stop-color="#99cabd"/><stop offset=".77" stop-color="#92e2c4"/><stop offset=".9" stop-color="#8df1c9"/><stop offset="1" stop-color="#8cf6ca"/></linearGradient><linearGradient id="ana8804725-c981-49c0-b74b-d4fb48bba5c6" x1="-3343.71" y1="91.49" x2="-3343.71" y2="18.3" gradientTransform="matrix(-1 0 0 1 -3055.01 0)" xlink:href="#anbe7ce51b-58fc-4651-a1f4-2fed142213e7"/><linearGradient id="ana5e7a1b4-3182-45a6-b1b2-64edd0379494" x1="1091.79" y1="128.08" x2="1091.79" y2="55.06" xlink:href="#anbe7ce51b-58fc-4651-a1f4-2fed142213e7"/><linearGradient id="anbdbeabd5-ea2a-439e-a954-4adcda9867bf" x1="-3158.19" y1="55.06" x2="-3158.19" y2="128.08" gradientTransform="matrix(-1 0 0 1 -3055.01 0)" xlink:href="#anbe7ce51b-58fc-4651-a1f4-2fed142213e7"/><linearGradient id="anb76ba1d3-79a0-4d30-8c02-229a86250ec1" x1="1041.68" y1="100.64" x2="958.53" y2="31.35" xlink:href="#anbe7ce51b-58fc-4651-a1f4-2fed142213e7"/><linearGradient id="anbf8ad777-8851-41b6-9c35-a863a6d4f6dc" x1="897.79" y1="92.15" x2="927.91" y2="122.27" gradientTransform="translate(-782.24)" gradientUnits="userSpaceOnUse"><stop offset="0" stop-color="#00c3cf"/><stop offset="1" stop-color="#00123f"/></linearGradient><linearGradient id="ana7399903-a704-49c8-b990-d4089319ef51" x1="952.68" y1="92.15" x2="982.8" y2="122.27" xlink:href="#anbf8ad777-8851-41b6-9c35-a863a6d4f6dc"/><linearGradient id="anfb834703-de93-4763-9b22-95e14758a601" x1="899.53" y1="191.23" x2="875.78" y2="104.12" xlink:href="#anbe7ce51b-58fc-4651-a1f4-2fed142213e7"/><linearGradient id="ane2a6f133-a54b-42e9-a02e-f73e1b5d9cb2" x1="935.9" y1="203.47" x2="904.23" y2="134.18" xlink:href="#anbe7ce51b-58fc-4651-a1f4-2fed142213e7"/><linearGradient id="ana472c3dc-1757-42c1-be63-ff88791ea677" x1="1040.29" y1="210.11" x2="1073.94" y2="126.96" xlink:href="#anbe7ce51b-58fc-4651-a1f4-2fed142213e7"/><linearGradient id="ana6e4ab39-e1ec-455e-a547-ec8236bf0b3c" x1="1080.85" y1="177.08" x2="1104.61" y2="97.89" xlink:href="#anbe7ce51b-58fc-4651-a1f4-2fed142213e7"/><style>.anfec8dd6c-3b0f-4dc7-86d7-efa421dda938{fill:none;stroke:#fff;stroke-miterlimit:10}.anae830488-1b5a-4445-aab0-111f6bd973f6{fill:url(#anbe7ce51b-58fc-4651-a1f4-2fed142213e7)}.ana2f9a0d5-54e3-43e3-afae-6f07c6390cfe{fill:url(#ana8804725-c981-49c0-b74b-d4fb48bba5c6)}.ana217a5c1-cda2-4070-83f9-91d77a5e2e75{fill:url(#ana5e7a1b4-3182-45a6-b1b2-64edd0379494)}.ana719605e-7d24-4de5-abb5-ed4505d0f0fe{fill:url(#anbdbeabd5-ea2a-439e-a954-4adcda9867bf)}.anb4eea00f-4759-4d3e-b44a-642ec583c431{fill:url(#anb76ba1d3-79a0-4d30-8c02-229a86250ec1)}.anf2e40cf4-d1c6-4b09-b61d-23a07cc3785c{fill:url(#anbf8ad777-8851-41b6-9c35-a863a6d4f6dc)}.ane0505655-cce0-4c8d-b328-acfe0c100130{fill:url(#ana7399903-a704-49c8-b990-d4089319ef51)}.anecfea26c-88f0-4458-a737-26bab312adc8{fill:url(#anfb834703-de93-4763-9b22-95e14758a601)}.anb3ae5e94-4a8a-48e0-9ebd-dfbf506d6c8e{fill:url(#ane2a6f133-a54b-42e9-a02e-f73e1b5d9cb2)}.ane8933a0c-d30e-4bc6-804c-9e19752c7db6{fill:url(#ana472c3dc-1757-42c1-be63-ff88791ea677)}.ane30f7a1b-89e6-418a-a4a3-3cb4e2c9640c{fill:url(#ana6e4ab39-e1ec-455e-a547-ec8236bf0b3c)}</style></defs><g id="ana802d1d7-a9b6-40fd-8711-a18b4dfac565" data-name="Слой 2"><g id="anb6992ec9-94c4-4bf1-af38-1720d634bc46" data-name="Слой 1"><g id="ana2adb17e-ae21-4cbb-8d7d-89b378a05024" data-name="octopus__tentacle-6"><ellipse class="anfec8dd6c-3b0f-4dc7-86d7-efa421dda938" cx="116.24" cy="49.51" rx="3.57" ry="10.28" transform="rotate(-25.36 116.248 49.503)"/><ellipse class="anfec8dd6c-3b0f-4dc7-86d7-efa421dda938" cx="102.47" cy="40.38" rx="3.57" ry="10.28" transform="rotate(-25.36 102.493 40.384)"/><ellipse class="anfec8dd6c-3b0f-4dc7-86d7-efa421dda938" cx="114.59" cy="65.95" rx="3.57" ry="10.28" transform="rotate(-25.36 114.604 65.943)"/><path class="anae830488-1b5a-4445-aab0-111f6bd973f6" d="M169.77 91.49h-36.59a18.29 18.29 0 01-18.3-18.3v-18.3a18.29 18.29 0 00-18.3-18.3c-10.11 0-18.3 11.14-18.3 18.3a36.6 36.6 0 0173.19 0v18.3a18.3 18.3 0 0018.3 18.3z"/></g><path id="anac39a6fa-39da-4983-84d1-f9b0f9078783" data-name="octopus__tentacle-7" class="ana2f9a0d5-54e3-43e3-afae-6f07c6390cfe" d="M243 91.49h36.6a18.29 18.29 0 0018.29-18.3v-18.3a18.3 18.3 0 0118.3-18.3c10.12 0 18.3 11.38 18.3 18.3a36.6 36.6 0 00-73.19 0v18.3a18.29 18.29 0 01-18.3 18.3z"/><path id="anabb8518e-8d21-43a6-975e-b2ac79414763" data-name="octopus__tentacle-8" class="ana217a5c1-cda2-4070-83f9-91d77a5e2e75" d="M402 117.37c4.49-4.5 7.15-18.73 0-25.87a18.26 18.26 0 00-25.87 0 124.94 124.94 0 01-88.33 36.58h-81.43V91.49h82.09a86.73 86.73 0 0061.32-25.4c14.17-14.16 37.24-14.88 51.68-1a36.58 36.58 0 01.54 52.28z"/><g id="anb5bafa0b-7f0e-4ccb-8cdc-09263b3cc7d7" data-name="octopus__tentacle-5"><ellipse class="anfec8dd6c-3b0f-4dc7-86d7-efa421dda938" cx="37.51" cy="84.68" rx="3.57" ry="10.28" transform="rotate(-57.68 37.508 84.673)"/><ellipse class="anfec8dd6c-3b0f-4dc7-86d7-efa421dda938" cx="61.42" cy="99.8" rx="3.57" ry="10.28" transform="rotate(-57.68 61.421 99.805)"/><ellipse class="anfec8dd6c-3b0f-4dc7-86d7-efa421dda938" cx="20.99" cy="84.32" rx="3.57" ry="10.28" transform="rotate(-57.68 20.993 84.323)"/><ellipse class="anfec8dd6c-3b0f-4dc7-86d7-efa421dda938" cx="68.82" cy="114.58" rx="3.57" ry="10.28" transform="rotate(-57.68 68.823 114.578)"/><ellipse class="anfec8dd6c-3b0f-4dc7-86d7-efa421dda938" cx="44.9" cy="99.45" rx="3.57" ry="10.28" transform="rotate(-57.68 44.905 99.455)"/><path class="ana719605e-7d24-4de5-abb5-ed4505d0f0fe" d="M10.73 117.37c-4.09-4.08-7.16-18.73 0-25.87a18.26 18.26 0 0125.87 0 124.9 124.9 0 0088.32 36.58h81.45V91.49h-82.1A86.73 86.73 0 0163 66.09c-14.16-14.16-37.24-14.88-51.68-1a36.59 36.59 0 00-.59 52.28z"/></g><path class="anb4eea00f-4759-4d3e-b44a-642ec583c431" d="M215.52 0a64 64 0 00-64.05 64v64h64.05a64 64 0 0064-64V0z"/><path class="anf2e40cf4-d1c6-4b09-b61d-23a07cc3785c" d="M151.47 102.19a25.87 25.87 0 00-25.88 25.89h25.88z"/><path class="ane0505655-cce0-4c8d-b328-acfe0c100130" d="M206.37 102.19a25.88 25.88 0 00-25.89 25.89h25.89z"/><g id="ana69cb592-a9a6-436f-9da1-546c39818843" data-name="octopus__tentacle-4"><ellipse class="anfec8dd6c-3b0f-4dc7-86d7-efa421dda938" cx="38.83" cy="161.51" rx="10.28" ry="3.57" transform="rotate(-8.51 38.864 161.56)"/><ellipse class="anfec8dd6c-3b0f-4dc7-86d7-efa421dda938" cx="66.82" cy="157.32" rx="10.28" ry="3.57" transform="rotate(-8.51 66.816 157.355)"/><ellipse class="anfec8dd6c-3b0f-4dc7-86d7-efa421dda938" cx="26.1" cy="172.04" rx="10.28" ry="3.57" transform="rotate(-8.1 27.088 169.673)"/><ellipse class="anfec8dd6c-3b0f-4dc7-86d7-efa421dda938" cx="82.07" cy="163.66" rx="10.28" ry="3.57" transform="rotate(-8.51 82.09 163.694)"/><ellipse class="anfec8dd6c-3b0f-4dc7-86d7-efa421dda938" cx="54.09" cy="167.85" rx="10.28" ry="3.57" transform="rotate(-8.51 54.138 167.9)"/><path class="anecfea26c-88f0-4458-a737-26bab312adc8" d="M206.37 128.08a36.58 36.58 0 01-36.6 36.6H41.69A18.29 18.29 0 0023.39 183c0 10.12 12.55 18.3 18.3 18.3a36.6 36.6 0 010-73.19h164.68z"/></g><path id="anac7cb4d5-58a1-4504-8794-6e1d7a6a2768" data-name="octopus__tentacle-3" class="anb3ae5e94-4a8a-48e0-9ebd-dfbf506d6c8e" d="M105.73 164.68a36.6 36.6 0 000 73.19c-5.9 0-18.3-8.19-18.3-18.3a18.3 18.3 0 0118.3-18.3h27.45a73.15 73.15 0 0073.19-73.19z"/><g id="ana3616e94-b9d1-4b67-9787-cc662590ce48" data-name="octopus__tentacle-2"><ellipse class="anfec8dd6c-3b0f-4dc7-86d7-efa421dda938" cx="305.9" cy="198.1" rx="3.57" ry="10.28" transform="rotate(-81.49 305.89 198.104)"/><ellipse class="anfec8dd6c-3b0f-4dc7-86d7-efa421dda938" cx="277.92" cy="193.91" rx="3.57" ry="10.28" transform="rotate(-81.49 277.908 193.918)"/><ellipse class="anfec8dd6c-3b0f-4dc7-86d7-efa421dda938" cx="318.63" cy="208.63" rx="3.57" ry="10.28" transform="rotate(-81.49 318.622 208.629)"/><ellipse class="anfec8dd6c-3b0f-4dc7-86d7-efa421dda938" cx="262.66" cy="200.25" rx="3.57" ry="10.28" transform="rotate(-81.49 262.654 200.251)"/><ellipse class="anfec8dd6c-3b0f-4dc7-86d7-efa421dda938" cx="290.65" cy="204.44" rx="3.57" ry="10.28" transform="rotate(-81.49 290.641 204.442)"/><path class="ane8933a0c-d30e-4bc6-804c-9e19752c7db6" d="M343.6 201.27a36.57 36.57 0 00-36.6-36.59l-100.63-36.6a73.14 73.14 0 0073.19 73.19H307a18.29 18.29 0 0118.3 18.3c0 10.11-12.29 18.3-18.3 18.3a36.58 36.58 0 0036.6-36.6z"/></g><path id="anfca0dc24-643b-4fc8-818d-a1c6c67d6dbd" data-name="octopus__tentacle-1" class="ane30f7a1b-89e6-418a-a4a3-3cb4e2c9640c" d="M371 128.08H206.37a36.58 36.58 0 0036.63 36.6h128A18.28 18.28 0 01389.34 183c0 10.12-12.43 18.3-18.3 18.3h1.42a36.59 36.59 0 00-1.46-73.22z"/></g></g></svg>