<?xml version="1.0" encoding="utf-8"?><svg xmlns="http://www.w3.org/2000/svg" xmlns:xlink="http://www.w3.org/1999/xlink" viewBox="0 0 707.42 267.26" width="707.42" height="267.26"><defs><linearGradient id="apbf699f35-d71b-4a02-bc92-265b62f7811a" x1="634.82" y1="188.38" x2="544.17" y2="238.33" gradientTransform="matrix(-.99 .13 .13 .99 597.32 -80.48)" gradientUnits="userSpaceOnUse"><stop offset="0" stop-color="#c8ffff"/><stop offset=".2" stop-color="#0ff"/><stop offset="1" stop-color="#00123f"/></linearGradient><linearGradient id="apb40355f8-0d7a-4d52-8727-36a9c44c91a0" x1="-525.68" y1="536.89" x2="-525.68" y2="828.27" gradientTransform="matrix(-.98 -.21 -.21 .98 117.51 -612.88)" xlink:href="#apbf699f35-d71b-4a02-bc92-265b62f7811a"/><linearGradient id="apf786b555-9780-44e1-8418-3f201e559516" x1="592.51" y1="236.24" x2="178.17" y2="305.94" gradientTransform="matrix(-.99 .13 .13 .99 597.32 -80.48)" gradientUnits="userSpaceOnUse"><stop offset="0" stop-color="#0ff"/><stop offset="1" stop-color="#00123f"/></linearGradient><linearGradient id="apbd198ecf-c9f5-4628-8964-16c8128eb646" x1="-429.09" y1="601.14" x2="-558.17" y2="751.73" gradientTransform="matrix(-.98 -.21 -.21 .98 117.51 -612.88)" xlink:href="#apf786b555-9780-44e1-8418-3f201e559516"/><linearGradient id="apeeece27e-b061-4766-832d-8499ecf297cc" x1="334.35" y1="126.05" x2="225.92" y2="296.43" xlink:href="#apf786b555-9780-44e1-8418-3f201e559516"/><style>.apb4d37146-e5d4-4a47-8251-b4ca28d19b75{fill:url(#apbf699f35-d71b-4a02-bc92-265b62f7811a)}.apb4f0e654-3d33-4a2b-b13d-6240187159b9{fill:url(#apb40355f8-0d7a-4d52-8727-36a9c44c91a0)}.apad180081-5437-4347-8591-bc868ebf2d87{fill:url(#apf786b555-9780-44e1-8418-3f201e559516)}.apaecc90a1-c56d-4e51-890b-1cb6e6e0410c{fill:url(#apbd198ecf-c9f5-4628-8964-16c8128eb646)}.apb33de1ce-8352-4190-8cfc-e11208a6d03b{fill:none;stroke:#fff;stroke-miterlimit:10}.apb4416f50-8365-4db1-b5c4-30af66e7952c{fill:url(#apeeece27e-b061-4766-832d-8499ecf297cc)}</style></defs><g id="ape58558fd-f8f6-47a4-b118-2a5b2737b033" data-name="Слой 2"><g id="apbbaba105-ab0e-4815-b907-bd4042c649d5" data-name="Слой 1"><path id="apaf167603-6dea-4bc1-9e9c-086325d244f2" data-name="ramp__tail" class="apb4d37146-e5d4-4a47-8251-b4ca28d19b75" d="M113 233c-32.61-12.19-48.44-30.21-48.44-30.21C42.38 192.14 0 188.83 0 188.83c10.56 18.75 45.62 32.47 45.62 32.47C70.41 222.77 113 233 113 233z"/><path class="apb4f0e654-3d33-4a2b-b13d-6240187159b9" d="M261.93 264C415.67 281.48 635 227.45 707.42 124c-60.73 22.36-109.72-32.36-156.78-65.59S461.69.52 402.88 0c51.29 31.27 52.71 65.28 45.79 87a68.2 68.2 0 01-9.07 18.39c-10 14.17-42.37 34.17-57.14 58.32S380.05 264.59 262.24 264z"/><path id="apaa8fed54-2e57-415b-9e09-49b82d80713a" data-name="ramp__tail" class="apad180081-5437-4347-8591-bc868ebf2d87" d="M261.93 264c-118-4.29-230.15-61.71-230.15-61.71 42.65 17.93 194.08 68.09 322.47 52 21.35 14.23-40.55 12.07-92.32 9.72"/><path class="apaecc90a1-c56d-4e51-890b-1cb6e6e0410c" d="M261.94 264h.3c117.81.57 105.46-76.22 120.22-100.35s47.12-44.15 57.14-58.32A68.2 68.2 0 00448.67 87c25.26 13.27 53.44 28.08 87.72 43.2 112.64 49.69 171-6.16 171-6.17-71.6 102.36-287 156.31-440.51 140.55-1.66-.17-3.33-.33-5-.52z"/><path class="apb33de1ce-8352-4190-8cfc-e11208a6d03b" d="M615 182.83c-21.1 10.18-39.29-11.47-38.94-24.3M594.64 195.81c-23.27 2.73-33.38-23.68-28.86-35.69M571.2 201.45c-22.88-5-23.8-33.3-15.61-43.17"/><path class="apb4416f50-8365-4db1-b5c4-30af66e7952c" d="M283.88 34.72c64.64-.45 107.05 21.87 164.79 52.28a68.2 68.2 0 01-9.07 18.39c-10 14.17-42.37 34.17-57.14 58.32S380.05 264.59 262.24 264h-.3c.09 0 48.11-.88 57.69-31.76s-24.82-47 3.67-75.79 43.59-46.21 29.88-66.69-32.63-35-69.3-55.04z"/></g></g></svg>