<?xml version="1.0" encoding="utf-8"?><svg xmlns="http://www.w3.org/2000/svg" xmlns:xlink="http://www.w3.org/1999/xlink" viewBox="0 0 245.26 239.23" width="245.26" height="239.23"><defs><radialGradient id="aqae25bed5-c7ea-4822-843c-e56dbaafe49f" cx="138.63" cy="143.91" r="121.13" gradientUnits="userSpaceOnUse"><stop offset="0" stop-color="#1e31b2"/><stop offset=".76" stop-color="#8cf6ca"/><stop offset="1" stop-color="#fff6d4"/></radialGradient><radialGradient id="aqad920e6c-f25c-42c8-9512-bac7481877d6" cx="2192.22" cy="-5241.83" r="95.74" gradientTransform="rotate(90 -1523.92 -3589.24)" xlink:href="#aqae25bed5-c7ea-4822-843c-e56dbaafe49f"/><radialGradient id="aqffab6af5-27b3-4e96-a4be-ccebd0365cf6" cx="-1711.53" cy="-7658.63" r="79.31" gradientTransform="matrix(-.93 .38 -.38 -.93 -4365.43 -6306.59)" xlink:href="#aqae25bed5-c7ea-4822-843c-e56dbaafe49f"/><style>.aqa5b51bbd-b78f-46a8-9d5b-3285606e3801{fill:url(#aqae25bed5-c7ea-4822-843c-e56dbaafe49f)}.aqbdf63487-f02d-4be6-a283-a1419409d4b2{fill:url(#aqad920e6c-f25c-42c8-9512-bac7481877d6)}.aqa4e60123-5a19-4af4-ba6f-ec63f0c13c5e{fill:none;stroke:#fff;stroke-miterlimit:10}.aqab314c94-d353-4690-a841-edc3d48abd5e{fill:url(#aqffab6af5-27b3-4e96-a4be-ccebd0365cf6)}</style></defs><g id="aqaa1b1d82-f626-4659-ad87-f732915846b1" data-name="Слой 2"><g id="aqa6c8ca6e-8b81-49a8-bf79-01e8573acae8" data-name="Слой 1"><path class="aqa5b51bbd-b78f-46a8-9d5b-3285606e3801" d="M121.63 0l9 42.78A20.92 20.92 0 00163.87 55l18.2-14-7.89 22.19a20.92 20.92 0 0021.59 27.84l35.13-3.18-29.06 18.26a20.91 20.91 0 00.33 35.62l43.09 26-47.14-7.63a20.92 20.92 0 00-23.05 27.66l7 19.67-19-14.63A20.92 20.92 0 00130 204.48l-8.35 34.75-8.36-34.75a20.92 20.92 0 00-33.09-11.69l-19 14.63L68.45 187a20.91 20.91 0 00-22.62-27.72L0 165.71l41.94-24.78a20.92 20.92 0 001.18-35.26l-19.3-13.23 25.69.72A20.92 20.92 0 0069.8 65.24L61.18 41l18.2 14a20.92 20.92 0 0033.22-12.22z"/><path class="aqbdf63487-f02d-4be6-a283-a1419409d4b2" d="M213.73 113.08l-33.81 7.13a16.53 16.53 0 00-9.69 26.26l11.07 14.38-17.54-6.24a16.53 16.53 0 00-22 17.07l2.51 27.77-14.43-23a16.53 16.53 0 00-28.16.27L81.16 210.8l6-37.26a16.53 16.53 0 00-21.86-18.22l-15.55 5.53 11.56-15a16.53 16.53 0 00-9.23-26.16l-27.47-6.6 27.47-6.6a16.53 16.53 0 009.23-26.16l-11.56-15 16.16 5.75a16.53 16.53 0 0021.94-17.91l-5.1-36.23 19.59 33.15a16.53 16.53 0 0027.87.94l10.45-15.26-.56 20.31a16.53 16.53 0 0022.06 16l19.14-6.78-11.07 14.39a16.53 16.53 0 009.69 26.31z"/><path class="aqa4e60123-5a19-4af4-ba6f-ec63f0c13c5e" d="M112.22 108.48l-89.04 33.94M112.22 108.48l-80.04 51.71M112.22 108.48L44.68 175.7M112.22 108.48l-52.08 79.8M112.22 108.48l-34.35 88.88M112.22 108.48L97.1 202.56M112.22 108.48l73.92 60.13M112.22 108.48l84.81 43.45M112.22 108.48l91.99 24.87M112.22 108.48l95.15 5.2M112.22 108.48l94.15-14.7M112.22 108.48l89.04-33.95"/><path class="aqab314c94-d353-4690-a841-edc3d48abd5e" d="M135.14 167.6l-12.28-18a10.43 10.43 0 00-17.65.64l-5.75 9.92-.56-11.74a10.44 10.44 0 00-15.24-8.76l-15.61 8.13 10-13.94a10.43 10.43 0 00-6.91-16.38l-24.8-3.81 23.2-5.42a10.43 10.43 0 005.4-17.13l-7-7.75 11.54 3.15A10.44 10.44 0 0092.53 74.8L89.8 57.18l10.44 14.46a10.44 10.44 0 0017.49-.88l6-10.35.51 10.81a10.44 10.44 0 0015.7 8.51l19.93-11.67-14.66 19.39a10.43 10.43 0 006.14 16.5l11.41 2.44-12 4.54a10.44 10.44 0 00-4.07 16.73l8.56 9.55-11.06-3a10.44 10.44 0 00-13 11.95z"/></g></g></svg>