<?xml version="1.0" encoding="utf-8"?><svg xmlns="http://www.w3.org/2000/svg" xmlns:xlink="http://www.w3.org/1999/xlink" viewBox="0 0 134.29 197.11" width="134.29" height="197.11"><defs><linearGradient id="bae5e50d0f-5be2-4165-98ec-d74c7c3277cc" x1="-3158.01" y1="106.54" x2="-3269.36" y2="106.54" gradientTransform="matrix(-1 0 0 1 -3128.97 0)" gradientUnits="userSpaceOnUse"><stop offset="0" stop-color="#0ff"/><stop offset="1" stop-color="#00123f"/></linearGradient><linearGradient id="baba98c1e2-13e4-4e82-878c-021ddce03849" x1="-3201.82" y1="-30.71" x2="-3184.62" y2="47.6" gradientTransform="matrix(-.16 -.99 -.99 .16 -415.37 -3133.07)" xlink:href="#bae5e50d0f-5be2-4165-98ec-d74c7c3277cc"/><linearGradient id="babc26308c-fef9-4b4d-b606-4638fe11b9c5" x1="-3191.28" y1="134.08" x2="-3288.19" y2="134.08" xlink:href="#bae5e50d0f-5be2-4165-98ec-d74c7c3277cc"/><linearGradient id="bab88863ea-994b-4c98-bffd-1d0b277faf7e" x1="-3235.83" y1="60.25" x2="-3218.64" y2="113.73" gradientTransform="matrix(-.32 -.95 -.95 .32 -853.83 -2999.19)" xlink:href="#bae5e50d0f-5be2-4165-98ec-d74c7c3277cc"/><style>.baaac0264e-83a9-4114-969e-2ee2bed42a63{fill:url(#bae5e50d0f-5be2-4165-98ec-d74c7c3277cc)}.babac0298a-68c1-4d96-abe6-2ce119375457{fill:url(#baba98c1e2-13e4-4e82-878c-021ddce03849)}.baedc4b93c-ac33-4911-afda-2969b5bc6535{fill:none;stroke:#fff;stroke-miterlimit:10}.baa56863ee-08c7-4986-a1cb-51ed5324870a{fill:url(#babc26308c-fef9-4b4d-b606-4638fe11b9c5)}.bafd392964-7b72-4c63-a477-9587b286b5e7{fill:url(#bab88863ea-994b-4c98-bffd-1d0b277faf7e)}</style></defs><g id="bab7aa74d0-a874-47b7-80dc-d6af3e1b1349" data-name="Слой 2"><g id="baf332b5e2-2db4-4db0-8cfa-4b5ccdcd51ea" data-name="Слой 1"><path class="baaac0264e-83a9-4114-969e-2ee2bed42a63" d="M107.11 28.76C96.81 56.49 77 197.11 77 197.11H31C.11 125.3 15.38 16 15.38 16z"/><ellipse class="babac0298a-68c1-4d96-abe6-2ce119375457" cx="61.38" cy="21.53" rx="20.53" ry="46.3" transform="rotate(-81.02 61.374 21.528)"/><path class="baedc4b93c-ac33-4911-afda-2969b5bc6535" d="M16.64 20.18C11.2 22.64 7.7 26.08 7 30.28c-1.77 11.2 17.27 23.51 42.53 27.5A101.1 101.1 0 0061.38 59M10.22 45.82c-5.45 2.46-8.94 5.9-9.61 10.1-1.77 11.2 17.28 23.51 42.53 27.51A103.68 103.68 0 0055 84.6"/><path class="baa56863ee-08c7-4986-a1cb-51ed5324870a" d="M129.73 103.15c-22.08 16.87-11.75 94-11.75 94H77C43.59 144.71 56.12 88.46 63.51 74s66.22 29.15 66.22 29.15z"/><ellipse class="bafd392964-7b72-4c63-a477-9587b286b5e7" cx="98.62" cy="85.87" rx="19.54" ry="37.06" transform="rotate(-71.32 98.62 85.867)"/><path class="baedc4b93c-ac33-4911-afda-2969b5bc6535" d="M66.82 158.34c4 5.08 14.34 9.84 27 11.84 16.88 2.67 31.42-.58 32.48-7.26.52-3.33-2.41-6.89-7.57-9.95M74.23 176.71c3.45 4.42 12.5 8.57 23.54 10.32 14.72 2.32 27.39-.51 28.31-6.34.46-2.9-2.09-6-6.59-8.67"/></g></g></svg>