<?xml version="1.0" encoding="utf-8"?><svg xmlns="http://www.w3.org/2000/svg" xmlns:xlink="http://www.w3.org/1999/xlink" viewBox="0 0 158.83 159.83" width="158.83" height="159.83"><defs><linearGradient id="atbbc87198-188b-441b-bdad-e57293c493fa" x1="30.93" y1="102.32" x2="76.79" y2="97.73" gradientUnits="userSpaceOnUse"><stop offset="0" stop-color="#0ff"/><stop offset="1" stop-color="#00123f"/></linearGradient><linearGradient id="ata9203318-d36c-420d-b0f4-84fe882d24ed" x1="22.69" y1="34.76" x2="34.16" y2="69.16" gradientTransform="rotate(16.68 28.106 51.031)" gradientUnits="userSpaceOnUse"><stop offset="0" stop-color="#00c3cf"/><stop offset="1" stop-color="#00123f"/></linearGradient><linearGradient id="ate2304e3c-9ab7-4ffb-bf86-9041b32b384d" x1="78.78" y1="86.12" x2="124.64" y2="95.29" xlink:href="#atbbc87198-188b-441b-bdad-e57293c493fa"/><linearGradient id="atb4da85e2-5007-48cc-9f90-ff6f15e2b636" x1="-257.65" y1="-1836.67" x2="-245.05" y2="-1798.88" gradientTransform="rotate(106.68 -753.45 -766.68)" xlink:href="#ata9203318-d36c-420d-b0f4-84fe882d24ed"/><linearGradient id="ate09d9c67-9799-441e-8bb4-4a1b9c2a197b" x1="100.45" y1="109.77" x2="140" y2="122.38" xlink:href="#atbbc87198-188b-441b-bdad-e57293c493fa"/><linearGradient id="ata7ea6821-7d9e-4fea-8081-04899ebf4212" x1="-852.49" y1="-2788.28" x2="-841.57" y2="-2755.54" gradientTransform="rotate(106.68 -1416.745 -984.162)" xlink:href="#ata9203318-d36c-420d-b0f4-84fe882d24ed"/><style>.atb0ebdc82-38fe-45a2-93ec-5d0e955cc7f5{fill:url(#atbbc87198-188b-441b-bdad-e57293c493fa)}.atac4c077a-5fd8-4558-b28c-5da9428f368a{fill:url(#ata9203318-d36c-420d-b0f4-84fe882d24ed)}.atb78e8806-0f77-42fd-9e57-5e4b1e399345{fill:none;stroke:#0ff;stroke-miterlimit:10}.atbe2959cf-c007-4dc9-9b8d-81fd6f886545{fill:url(#ate2304e3c-9ab7-4ffb-bf86-9041b32b384d)}.ata190bf23-28f1-4a75-a42b-0169ef1db613{fill:url(#atb4da85e2-5007-48cc-9f90-ff6f15e2b636)}.ata5195dea-d9e8-4d75-93e0-6f79f0bbe21d{fill:url(#ate09d9c67-9799-441e-8bb4-4a1b9c2a197b)}.ataf82e541-4baa-409f-a1e1-76da265b6307{fill:url(#ata7ea6821-7d9e-4fea-8081-04899ebf4212)}</style></defs><g id="ataa43fd6d-e196-4101-834b-445a4d76e627" data-name="Слой 2"><g id="atb4c7994b-ae45-4a09-8b0a-70fa77483303" data-name="Слой 1"><path class="atb0ebdc82-38fe-45a2-93ec-5d0e955cc7f5" d="M3.41 63.52C22.38 80 37.28 118.18 44 159.83h21.6C82.38 101 60.14 47.12 53.49 39.08z"/><ellipse class="atac4c077a-5fd8-4558-b28c-5da9428f368a" cx="28.12" cy="51.04" rx="29.05" ry="14.02" transform="rotate(-16.68 28.122 51.052)"/><path class="atb78e8806-0f77-42fd-9e57-5e4b1e399345" d="M55.46 64.86c-4.23 4.47-11.33 8.64-19.9 11.21C20.19 80.68 5.93 78.4 3.71 71a8.23 8.23 0 01.62-5.88M65.73 82.91c-4.23 4.48-11.33 8.65-19.91 11.21C30.46 98.73 16.2 96.45 14 89a8.23 8.23 0 01.62-5.88"/><path class="atbe2959cf-c007-4dc9-9b8d-81fd6f886545" d="M80.12 159.83C90.41 116.55 83.79 37 79.65 16l60.4 8.92c-13.52 23.69-35.69 59.23-30.2 134.9z"/><ellipse class="ata190bf23-28f1-4a75-a42b-0169ef1db613" cx="110.36" cy="16.01" rx="15.4" ry="31.92" transform="rotate(-81.02 110.356 16.017)"/><path class="ata5195dea-d9e8-4d75-93e0-6f79f0bbe21d" d="M108.17 63c-10 20-7.15 87.11-5.15 96.85h21.26c-.33-31.53 7.13-59.54 29.34-69.32z"/><ellipse class="ataf82e541-4baa-409f-a1e1-76da265b6307" cx="133.18" cy="74.78" rx="13.35" ry="27.65" transform="rotate(-64.74 133.177 74.777)"/><path class="atb78e8806-0f77-42fd-9e57-5e4b1e399345" d="M128.11 99.26a52.85 52.85 0 01-12.17-4.09C102.13 88.66 93.48 78 96.63 71.3c1.18-2.49 3.85-4.07 7.45-4.73M126.07 115.28a45.93 45.93 0 01-11-1.55c-12.79-3.36-21.85-11.08-20.23-17.26.61-2.31 2.63-4.08 5.6-5.21"/></g></g></svg>