<?xml version="1.0" encoding="utf-8"?><svg xmlns="http://www.w3.org/2000/svg" viewBox="0 0 392.02 180.07" width="392.02" height="180.07"><defs><style>.ayf3478e49-0715-4d00-bb2d-8c313915f722{fill:#0ff}</style></defs><g id="ayfb34e27b-3297-4afb-9e31-4ffe4ae2d86b" data-name="Слой 2"><g id="aya8edbea8-22f1-4c21-bc98-b81c0fca1700" data-name="Слой 1"><path class="ayf3478e49-0715-4d00-bb2d-8c313915f722" d="M198.12 33.71c.4-1.24.78-2.42 2.25-3a9.52 9.52 0 004.53-13.94c-.85-1.34-.46-2.52-.06-3.76 1.21-3.71 4.27-6 6.83-5.21s3.67 4.52 2.47 8.23c-.41 1.24-1.22 2.74-2.26 3A9.54 9.54 0 00207.35 33c.68.82.46 2.52.06 3.76-1.21 3.71-4.27 6-6.83 5.21s-3.67-4.55-2.46-8.26zM148.11 27.45c.27-1.28.52-2.51 1.93-3.26a9.57 9.57 0 003-14.42c-1-1.25-.72-2.47-.45-3.75.8-3.84 3.61-6.5 6.27-5.95S163 4.2 162.23 8c-.27 1.28-.92 2.87-1.93 3.25a9.58 9.58 0 00-3 14.42c.77.76.72 2.48.45 3.76-.8 3.84-3.61 6.5-6.27 5.94s-4.18-4.08-3.37-7.92zM99.06 30.91c.13-1.32.26-2.58 1.61-3.49a9.74 9.74 0 001.54-14.91c-1.13-1.16-1-2.42-.86-3.74.41-4 3-7 5.71-6.68s4.64 3.73 4.23 7.7c-.14 1.33-.63 3-1.61 3.5a9.73 9.73 0 00-1.54 14.9c.85.68 1 2.43.86 3.75-.41 4-3 7-5.72 6.68s-4.63-3.74-4.22-7.71zM61.83 23.35c1.3-.29 3-.36 3.83.41a9.69 9.69 0 008.08 1.81c.87-.2 1 .26.1.46a9.68 9.68 0 00-6.55 5.06c-.75 1.44-2 1.72-3.28 2-3.9.87-7.54-.61-8.14-3.3s2.07-5.58 5.96-6.44zM232.84 88.85c.28-1.3.55-2.54 2-3.3A9.74 9.74 0 00238 70.9c-1-1.28-.73-2.52-.45-3.82.84-3.91 3.7-6.6 6.4-6s4.21 4.22 3.37 8.12c-.28 1.3-.95 2.92-2 3.3a9.74 9.74 0 00-3.14 14.65c.78.77.73 2.52.45 3.82-.83 3.9-3.7 6.6-6.4 6s-4.23-4.22-3.39-8.12zM141.57 91.31c0-1.3 0-2.54 1.21-3.56a9.52 9.52 0 000-14.65c-1.21-1-1.21-2.26-1.21-3.56 0-3.9 2.19-7.07 4.88-7.07s4.89 3.17 4.89 7.07c0 1.3-.31 3-1.22 3.56a9.52 9.52 0 000 14.65c.91.58 1.22 2.26 1.22 3.56 0 3.91-2.19 7.07-4.89 7.07s-4.88-3.16-4.88-7.07zM51.11 104.53c-.28-1.3-.54-2.54.45-3.82a9.74 9.74 0 00-3.14-14.66c-1.43-.76-1.69-2-2-3.3-.84-3.9.67-7.53 3.37-8.11s5.56 2.12 6.4 6c.28 1.3.33 3-.45 3.82a9.74 9.74 0 003.14 14.65c1 .39 1.69 2 2 3.3.84 3.91-.67 7.54-3.37 8.12s-5.51-2.1-6.4-6zM5.6 99.44c1.27-.39 3-.59 3.84.12a9.68 9.68 0 008.2 1.16c.85-.26 1 .19.14.45a9.7 9.7 0 00-6.13 5.57C11 108.23 9.8 108.6 8.53 109c-3.81 1.18-7.56 0-8.37-2.65s1.62-5.74 5.44-6.91z"/><path class="ayf3478e49-0715-4d00-bb2d-8c313915f722" d="M392 177.53A273.91 273.91 0 0071.86 25.74l.26 1c131.49-35 266.56 32.6 319.9 153.36z"/><path class="ayf3478e49-0715-4d00-bb2d-8c313915f722" d="M392 116.69c-24-14.33-54.54-25.3-90.7-32.36-83-16.21-186.08-9.88-290.16 17.83l.26 1c103.93-27.66 206.82-34 289.7-17.81 36.33 7.05 66.9 18.09 90.9 32.5z"/></g></g></svg>