<?xml version="1.0" encoding="utf-8"?><svg xmlns="http://www.w3.org/2000/svg" viewBox="0 0 392.02 56.87" width="392.02" height="56.87"><defs><style>.bbba68b41c-e465-46af-aa5d-326e44afeba4{fill:#0ff}</style></defs><g id="bba9c070c7-9f04-45e7-89dd-7e593dc2fea4" data-name="Слой 2"><g id="bbe2d09465-8fb5-4b9a-ab23-40544fe59490" data-name="Слой 1"><path class="bbba68b41c-e465-46af-aa5d-326e44afeba4" d="M232.84 27.87c.28-1.3.55-2.54 2-3.3A9.74 9.74 0 00238 9.92c-1-1.28-.73-2.52-.45-3.82.84-3.9 3.7-6.6 6.4-6s4.21 4.21 3.37 8.11c-.28 1.3-.95 2.92-2 3.3a9.74 9.74 0 00-3.14 14.65c.78.77.73 2.52.45 3.82-.83 3.91-3.7 6.6-6.4 6s-4.23-4.21-3.39-8.11zM141.57 30.34c0-1.3 0-2.55 1.21-3.56a9.53 9.53 0 000-14.66c-1.21-1-1.21-2.26-1.21-3.56 0-3.9 2.19-7.06 4.88-7.06s4.89 3.16 4.89 7.06c0 1.3-.31 3-1.22 3.56a9.53 9.53 0 000 14.66c.91.57 1.22 2.26 1.22 3.56 0 3.9-2.19 7.06-4.89 7.06s-4.88-3.16-4.88-7.06zM51.11 43.55c-.28-1.3-.54-2.54.45-3.82a9.74 9.74 0 00-3.14-14.65c-1.43-.76-1.69-2-2-3.3-.84-3.91.67-7.54 3.37-8.12s5.56 2.12 6.4 6c.28 1.3.33 3.05-.45 3.82a9.74 9.74 0 003.14 14.66c1 .38 1.69 2 2 3.3.84 3.9-.67 7.53-3.37 8.11s-5.51-2.1-6.4-6zM5.6 38.46c1.27-.39 3-.59 3.84.12a9.68 9.68 0 008.2 1.16c.85-.26 1 .19.14.46a9.68 9.68 0 00-6.13 5.56C11 47.25 9.8 47.63 8.53 48 4.72 49.19 1 48 .16 45.36s1.62-5.72 5.44-6.9z"/><path class="bbba68b41c-e465-46af-aa5d-326e44afeba4" d="M392 55.71c-24-14.32-54.54-25.3-90.7-32.36-83-16.2-186.08-9.87-290.16 17.83l.26 1c103.93-27.67 206.82-34 289.7-17.82 36.33 7.06 66.9 18.1 90.9 32.51z"/></g></g></svg>