<?xml version="1.0" encoding="utf-8"?><svg xmlns="http://www.w3.org/2000/svg" xmlns:xlink="http://www.w3.org/1999/xlink" viewBox="0 0 87 413.72" width="87" height="413.72"><defs><linearGradient id="bdbf28e6b1-426e-410c-b26a-26cc3f319495" x1="33.43" x2="33.43" y2="145.15" gradientUnits="userSpaceOnUse"><stop offset="0" stop-color="#8cf6ca"/><stop offset="1" stop-color="#004f7f"/></linearGradient><linearGradient id="bdfa32a4ec-6f71-477d-b512-199715054833" x1="54.41" y1="292.38" x2="54.41" y2="413.72" xlink:href="#bdbf28e6b1-426e-410c-b26a-26cc3f319495"/><linearGradient id="bda6780f38-c6c0-4d3f-8702-2884d213a816" x1="63.06" y1="145.15" x2="63.06" y2="292.38" xlink:href="#bdbf28e6b1-426e-410c-b26a-26cc3f319495"/><style>.bde1dcf71c-cc81-4061-a8c0-07ec82f32f35{isolation:isolate}.bdae56e08b-be61-4a26-b840-d5d2abb1c44f{mix-blend-mode:screen}.bde42917c1-ee00-4ffc-a6e9-4cb633398885{fill:url(#bdbf28e6b1-426e-410c-b26a-26cc3f319495)}.bdbccd52e7-8c8a-486d-b113-7f97d88302dc{fill:url(#bdfa32a4ec-6f71-477d-b512-199715054833)}.bdfe73fad5-85bc-40d6-aa64-8b906e8bd413{fill:url(#bda6780f38-c6c0-4d3f-8702-2884d213a816)}</style></defs><g class="bde1dcf71c-cc81-4061-a8c0-07ec82f32f35"><g id="bdfe18bf5b-d825-40a4-9c22-cccab93f11e2" data-name="Слой 2"><g id="bde2989077-e74f-420a-96a0-b8875551ac09" data-name="Слой 1"><g class="bdae56e08b-be61-4a26-b840-d5d2abb1c44f" id="bdafb60a03-9c93-44c3-9610-18b1ad97aae5" data-name="seaweed__1"><path class="bde42917c1-ee00-4ffc-a6e9-4cb633398885" d="M32.23 0C-1.7 28.13-29.49 72 61.36 140.66c2 1.49 3.78 3 5.5 4.49-4.52-29.07-21.15-55.77-34.63-78.95a64.41 64.41 0 010-66.2z"/><path class="bdbccd52e7-8c8a-486d-b113-7f97d88302dc" d="M39.5 292.38c-18 36.86-28.27 77.21-.65 121.34H87c-32.6-49.34-45.24-88.67-47.5-121.34z"/><path class="bdfe73fad5-85bc-40d6-aa64-8b906e8bd413" d="M66.86 145.15a89 89 0 01-5.5 48.47c-11 26.79-24.72 57.46-21.86 98.76 27.92-57.13 74.43-105.86 27.36-147.23z"/></g></g></g></g></svg>