<?xml version="1.0" encoding="utf-8"?><svg xmlns="http://www.w3.org/2000/svg" xmlns:xlink="http://www.w3.org/1999/xlink" viewBox="0 0 108.43 110.81" width="108.43" height="110.81"><defs><linearGradient id="bfb2769b60-11bf-4635-a894-a21d1034413c" x1="479.91" y1="-304.83" x2="620.45" y2="-400.71" gradientTransform="rotate(13.42 -1446.039 -2241.982)" gradientUnits="userSpaceOnUse"><stop offset="0" stop-color="#d40082"/><stop offset=".02" stop-color="#d20884"/><stop offset=".18" stop-color="#bf4697"/><stop offset=".33" stop-color="#b07ca6"/><stop offset=".49" stop-color="#a3a8b3"/><stop offset=".63" stop-color="#99cabd"/><stop offset=".77" stop-color="#92e2c4"/><stop offset=".9" stop-color="#8df1c9"/><stop offset="1" stop-color="#8cf6ca"/></linearGradient><linearGradient id="bfb97f60b9-d704-4124-bacc-5312deb7916f" x1="487.46" y1="-358.45" x2="579.35" y2="-358.45" xlink:href="#bfb2769b60-11bf-4635-a894-a21d1034413c"/><style>.bfa6b55f05-1923-44e5-9694-07693b27df69{fill:url(#bfb2769b60-11bf-4635-a894-a21d1034413c)}.bfbb8d6e32-0923-4541-821d-56d5fdc3be99{fill:url(#bfb97f60b9-d704-4124-bacc-5312deb7916f)}.bfe6e68d55-5da8-4c59-8ba4-56fe25e1358a{fill:none;stroke:#fff;stroke-miterlimit:10}</style></defs><g id="bff3136ae7-5974-4986-8fb0-f1c4fe4cf64d" data-name="Слой 2"><g id="bff61d2e0e-58a9-4c62-a3bd-bbff9e7ab16b" data-name="Слой 1"><path class="bfa6b55f05-1923-44e5-9694-07693b27df69" d="M104.83 45.93c-9.49-5-19.65-7.28-30.07-8.45a4.41 4.41 0 01-4.12-3.86c-.94-9.59-1.92-19-2.78-29a5.11 5.11 0 00-9.53-2c-5.46 9.32-11 19.17-16.6 28.87A6 6 0 0136 34.54c-10.38-1.3-20.5-3.69-30-8.87-4.53-2.53-7.8 2.22-4.9 7.51a131.66 131.66 0 0019.72 26.7 4.6 4.6 0 01.56 5.72C16 74.18 10.7 82 5.55 89.5c-2.48 3.61 2.05 8.08 6.53 6.59a202.12 202.12 0 0028.68-12 5.18 5.18 0 016.07.7 205.83 205.83 0 0120.09 24c3.11 4.27 9.47 1.05 9.19-4.56-.57-11.74-1.24-23.08-2.08-33.7a5.63 5.63 0 013.24-5.5c9.77-4.53 19.22-7.66 28.15-8.65 4.25-.29 3.95-7.99-.59-10.45z"/><path class="bfbb8d6e32-0923-4541-821d-56d5fdc3be99" d="M66.92 108.85a205.83 205.83 0 00-20.09-24c-8.59-8.67-17.51-15.91-26-24.93A131.66 131.66 0 011.1 33.18c-2.91-5.29.37-10 4.89-7.51 9.46 5.18 19.58 7.57 30 8.87a6 6 0 005.78-3.07c5.55-9.7 11.14-19.55 16.59-28.87a5.12 5.12 0 019.54 2c.86 10 1.84 19.41 2.78 29a1.23 1.23 0 010 .19c1.23 11.73 2.42 23.74 3.32 36.8.84 10.62 1.51 22 2.08 33.7.31 5.6-6.08 8.83-9.16 4.56z"/><path class="bfe6e68d55-5da8-4c59-8ba4-56fe25e1358a" d="M39.45 73.68L23 80.52l12.49-20.44a2 2 0 00-.18-2.3L19.73 39.59 43 45.15a2 2 0 002.13-.89l12.52-20.44 1.91 23.88a2 2 0 001.5 1.75l5.52 1.32"/></g></g></svg>